<svg width="136" height="109" viewBox="0 0 136 109" fill="none" xmlns="http://www.w3.org/2000/svg">
                    <g clip-path="url(#clip0_15726_1648)">
                      <path d="M14.3389 91.6639C11.2757 92.7558 7.8787 91.1619 7.07605 88.0105C5.05741 80.0851 4.58883 71.8246 5.71728 63.6868C7.116 53.6001 10.9271 43.9996 16.8271 35.6998C22.7272 27.3999 30.5422 20.6457 39.6091 16.01C48.676 11.3744 58.7273 8.99409 68.9102 9.07115C79.0932 9.1482 89.1073 11.6803 98.103 16.4526C107.099 21.225 114.811 28.0967 120.584 36.4849C126.358 44.8731 130.024 54.5301 131.269 64.6369C132.275 72.7908 131.681 81.0432 129.543 88.9372C128.692 92.0761 125.272 93.6184 122.225 92.4803C119.179 91.3422 117.668 87.9543 118.451 84.7981C119.966 78.6957 120.355 72.3509 119.582 66.0777C118.567 57.8508 115.584 49.99 110.884 43.162C106.184 36.334 99.9065 30.7404 92.584 26.8557C85.2615 22.9711 77.11 20.9099 68.8211 20.8472C60.5322 20.7845 52.3505 22.722 44.97 26.4954C37.5895 30.2689 31.2281 35.7668 26.4255 42.5229C21.6228 49.279 18.5206 57.0938 17.3821 65.3044C16.5139 71.5651 16.807 77.9151 18.2291 84.0397C18.9646 87.2074 17.4021 90.5721 14.3389 91.6639Z" fill="black" fill-opacity="0.08" />
                      <path d="M10.6321 92.8776C9.59675 93.2447 8.45666 92.7038 8.12224 91.6574C7.78782 90.6111 8.40295 89.5093 9.45933 89.2079L17.3141 86.9669C18.174 86.7216 19.0675 87.2207 19.3397 88.0725C19.6119 88.9242 19.1735 89.849 18.3307 90.1478L10.6321 92.8776Z" fill="#697586" />
                    </g>
                    <defs>
                      <clipPath id="clip0_15726_1648">
                        <rect width="135.581" height="110" fill="white" transform="translate(0 0.116211)" />
                      </clipPath>
                    </defs>
                  </svg>