<svg width="136" height="110" viewBox="0 0 136 110" fill="none" xmlns="http://www.w3.org/2000/svg">
 <g clip-path="url(#clip0_15726_213486)">
  <g clip-path="url(#clip1_15726_213486)">
   <path
    d="M14.3389 92.6649C11.2757 93.7568 7.8787 92.1629 7.07605 89.0115C5.05741 81.0861 4.58883 72.8256 5.71728 64.6878C7.116 54.6011 10.9271 45.0006 16.8271 36.7007C22.7272 28.4009 30.5422 21.6466 39.6091 17.011C48.676 12.3753 58.7273 9.99507 68.9102 10.0721C79.0932 10.1492 89.1073 12.6813 98.103 17.4536C107.099 22.2259 114.811 29.0977 120.584 37.4859C126.358 45.874 130.024 55.5311 131.269 65.6378C132.275 73.7917 131.681 82.0442 129.543 89.9382C128.692 93.0771 125.272 94.6194 122.225 93.4813C119.179 92.3432 117.668 88.9553 118.451 85.7991C119.966 79.6967 120.355 73.3518 119.582 67.0787C118.567 58.8518 115.584 50.9909 110.884 44.163C106.184 37.335 99.9065 31.7414 92.584 27.8567C85.2615 23.972 77.11 21.9109 68.8211 21.8482C60.5322 21.7855 52.3505 23.723 44.97 27.4964C37.5895 31.2698 31.2281 36.7678 26.4255 43.5239C21.6228 50.2799 18.5206 58.0947 17.3821 66.3053C16.5139 72.5661 16.807 78.9161 18.2291 85.0407C18.9646 88.2084 17.4021 91.5731 14.3389 92.6649Z"
    fill="black" fill-opacity="0.08" />
   <path
    d="M14.3071 92.5755C11.2421 93.6623 7.8476 92.0625 7.05006 88.9098C3.44532 74.6604 4.89886 59.5296 11.2738 46.1502C18.4967 30.9912 31.4457 19.3223 47.2721 13.7105C63.0986 8.09883 80.5061 9.00399 95.6652 16.2269C109.044 22.6018 119.705 33.4372 125.882 46.7746C127.249 49.7254 125.62 53.1063 122.555 54.193C119.49 55.2798 116.154 53.6562 114.725 50.7351C109.636 40.332 101.158 31.8889 90.5996 26.8582C78.2601 20.9787 64.0904 20.2419 51.2077 24.8099C38.325 29.3778 27.7845 38.8763 21.905 51.2158C16.8743 61.774 15.6087 73.6721 18.2096 84.9575C18.94 88.1264 17.3721 91.4887 14.3071 92.5755Z"
    fill="#17B26A" />
  </g>
  <path
   d="M52.1316 52.8226C53.9271 52.8226 55.6544 53.1238 57.3135 53.726C58.9839 54.3283 60.4725 55.2885 61.7794 56.6067C63.0975 57.9249 64.1373 59.6749 64.8987 61.8567C65.6714 64.0272 66.0635 66.6919 66.0748 69.851C66.0748 72.8169 65.7396 75.4647 65.0691 77.7942C64.41 80.1124 63.4612 82.084 62.2225 83.709C60.9839 85.334 59.4896 86.5726 57.7396 87.4249C55.9896 88.2658 54.035 88.6863 51.876 88.6863C49.5464 88.6863 47.4896 88.2374 45.7055 87.3397C43.9214 86.4306 42.4839 85.1976 41.393 83.6408C40.3135 82.0726 39.66 80.3113 39.4328 78.3567H46.7112C46.9953 79.6294 47.5919 80.6181 48.501 81.3226C49.41 82.0158 50.535 82.3624 51.876 82.3624C54.1487 82.3624 55.876 81.3738 57.0578 79.3965C58.2396 77.4078 58.8362 74.6863 58.8475 71.2317H58.6089C58.0862 72.2544 57.3816 73.1351 56.4953 73.8738C55.6089 74.601 54.5919 75.1635 53.4441 75.5613C52.3078 75.959 51.0975 76.1578 49.8135 76.1578C47.7566 76.1578 45.9214 75.6749 44.3078 74.709C42.6941 73.7431 41.4214 72.4135 40.4896 70.7203C39.5578 69.0272 39.0919 67.0953 39.0919 64.9249C39.0805 62.584 39.6203 60.4988 40.7112 58.6692C41.8021 56.8397 43.3248 55.4078 45.2794 54.3738C47.2453 53.3283 49.5294 52.8113 52.1316 52.8226ZM52.1828 58.6181C51.035 58.6181 50.0123 58.8908 49.1146 59.4363C48.2282 59.9817 47.5237 60.7147 47.001 61.6351C46.4896 62.5556 46.2396 63.584 46.251 64.7203C46.251 65.8681 46.501 66.9022 47.001 67.8226C47.5123 68.7317 48.2055 69.459 49.0805 70.0044C49.9669 70.5385 50.9782 70.8056 52.1146 70.8056C52.9669 70.8056 53.7566 70.6465 54.4839 70.3283C55.2112 70.0101 55.8419 69.5726 56.376 69.0158C56.9214 68.4476 57.3475 67.7942 57.6544 67.0556C57.9612 66.3169 58.1146 65.5328 58.1146 64.7033C58.1032 63.601 57.8419 62.5897 57.3305 61.6692C56.8191 60.7488 56.1146 60.0101 55.2169 59.4533C54.3191 58.8965 53.3078 58.6181 52.1828 58.6181ZM83.916 88.976C80.9841 88.9647 78.4614 88.2431 76.3478 86.8113C74.2455 85.3794 72.6262 83.3056 71.4898 80.5897C70.3648 77.8738 69.808 74.6067 69.8194 70.7885C69.8194 66.9817 70.3819 63.7374 71.5069 61.0556C72.6432 58.3738 74.2625 56.334 76.3648 54.9363C78.4785 53.5272 80.9955 52.8226 83.916 52.8226C86.8364 52.8226 89.3478 53.5272 91.45 54.9363C93.5637 56.3453 95.1887 58.3908 96.325 61.0726C97.4614 63.7431 98.0239 66.9817 98.0125 70.7885C98.0125 74.6181 97.4444 77.8908 96.308 80.6067C95.183 83.3226 93.5694 85.3965 91.4671 86.8283C89.3648 88.2601 86.8478 88.976 83.916 88.976ZM83.916 82.8567C85.916 82.8567 87.5125 81.851 88.7057 79.8397C89.8989 77.8283 90.4898 74.8113 90.4785 70.7885C90.4785 68.1408 90.2057 65.9363 89.6603 64.1749C89.1262 62.4135 88.3648 61.0897 87.3762 60.2033C86.3989 59.3169 85.2455 58.8738 83.916 58.8738C81.9273 58.8738 80.3364 59.8681 79.1432 61.8567C77.95 63.8453 77.3478 66.8226 77.3364 70.7885C77.3364 73.4703 77.6035 75.709 78.1375 77.5044C78.683 79.2885 79.45 80.6294 80.4387 81.5272C81.4273 82.4135 82.5864 82.8567 83.916 82.8567Z"
   fill="#17B26A" />
 </g>
 <defs>
  <clipPath id="clip0_15726_213486">
   <rect width="136" height="110" fill="white" />
  </clipPath>
  <clipPath id="clip1_15726_213486">
   <rect width="135.581" height="110" fill="white" transform="translate(0 1.11719)" />
  </clipPath>
 </defs>
</svg>