<svg width="12" height="12" viewBox="0 0 12 12" fill="none" xmlns="http://www.w3.org/2000/svg">
<path d="M7 1.13477V3.20004C7 3.48006 7 3.62007 7.0545 3.72703C7.10243 3.82111 7.17892 3.8976 7.273 3.94554C7.37996 4.00004 7.51997 4.00004 7.8 4.00004H9.86527M8 9.25L7.25 8.5M7 1H4.4C3.55992 1 3.13988 1 2.81901 1.16349C2.53677 1.3073 2.3073 1.53677 2.16349 1.81901C2 2.13988 2 2.55992 2 3.4V8.6C2 9.44008 2 9.86012 2.16349 10.181C2.3073 10.4632 2.53677 10.6927 2.81901 10.8365C3.13988 11 3.55992 11 4.4 11H7.6C8.44008 11 8.86012 11 9.18099 10.8365C9.46323 10.6927 9.6927 10.4632 9.83651 10.181C10 9.86012 10 9.44008 10 8.6V4L7 1ZM7.75 7.25C7.75 8.2165 6.9665 9 6 9C5.0335 9 4.25 8.2165 4.25 7.25C4.25 6.2835 5.0335 5.5 6 5.5C6.9665 5.5 7.75 6.2835 7.75 7.25Z" stroke="#F79009" stroke-width="1.5" stroke-linecap="round" stroke-linejoin="round"/>
</svg>
