<svg width="28" height="28" viewBox="0 0 28 28" fill="none" xmlns="http://www.w3.org/2000/svg">
<rect x="0.5" y="0.5" width="27" height="27" rx="13.5" fill="#EFF8FF"/>
<rect x="0.5" y="0.5" width="27" height="27" rx="13.5" stroke="#B2DDFF"/>
<path d="M11.2852 11.64C11.8072 12.7272 12.5188 13.7462 13.42 14.6474C14.3212 15.5486 15.3401 16.2602 16.4274 16.7822C16.5209 16.8271 16.5676 16.8495 16.6268 16.8668C16.8371 16.9281 17.0953 16.884 17.2733 16.7565C17.3234 16.7206 17.3663 16.6778 17.452 16.592C17.7143 16.3298 17.8454 16.1987 17.9772 16.113C18.4744 15.7898 19.1153 15.7898 19.6125 16.113C19.7443 16.1987 19.8754 16.3298 20.1376 16.592L20.2838 16.7382C20.6823 17.1368 20.8816 17.3361 20.9899 17.5501C21.2052 17.9758 21.2052 18.4785 20.9899 18.9041C20.8816 19.1182 20.6823 19.3175 20.2838 19.7161L20.1655 19.8343C19.7683 20.2315 19.5697 20.4301 19.2997 20.5818C19 20.7501 18.5347 20.8711 18.191 20.8701C17.8813 20.8692 17.6696 20.8091 17.2463 20.6889C14.9713 20.0432 12.8245 18.8249 11.0335 17.0339C9.24251 15.2429 8.02415 13.0961 7.37843 10.8211C7.25827 10.3977 7.19819 10.1861 7.19727 9.87636C7.19625 9.5327 7.31727 9.06733 7.48559 8.7677C7.63727 8.49768 7.83588 8.29907 8.2331 7.90185L8.35132 7.78362C8.74991 7.38504 8.9492 7.18575 9.16323 7.07749C9.5889 6.86219 10.0916 6.86219 10.5173 7.07749C10.7313 7.18575 10.9306 7.38504 11.3292 7.78362L11.4753 7.92978C11.7375 8.19198 11.8686 8.32308 11.9544 8.45492C12.2776 8.95208 12.2776 9.59302 11.9544 10.0902C11.8686 10.222 11.7375 10.3531 11.4753 10.6153C11.3896 10.7011 11.3467 10.7439 11.3109 10.794C11.1833 10.9721 11.1393 11.2303 11.2006 11.4406C11.2179 11.4997 11.2403 11.5465 11.2852 11.64Z" stroke="#2E90FA" stroke-width="1.5" stroke-linecap="round" stroke-linejoin="round"/>
</svg>
