<svg width="18" height="18" viewBox="0 0 18 18" fill="none" xmlns="http://www.w3.org/2000/svg">
<path d="M1.14637 14.1197C1.18466 13.7752 1.2038 13.6029 1.25594 13.4418C1.30219 13.299 1.36753 13.163 1.45021 13.0376C1.54339 12.8963 1.66596 12.7737 1.91112 12.5286L12.9164 1.52336C13.8368 0.602889 15.3292 0.60289 16.2497 1.52336C17.1702 2.44384 17.1702 3.93622 16.2497 4.8567L5.24445 15.8619C4.9993 16.1071 4.87672 16.2297 4.73541 16.3228C4.61005 16.4055 4.47408 16.4709 4.33121 16.5171C4.17018 16.5692 3.99789 16.5884 3.65331 16.6267L0.833008 16.94L1.14637 14.1197Z" stroke="#4B5565" stroke-width="1.66667" stroke-linecap="round" stroke-linejoin="round"/>
</svg>
