<svg width="12" height="12" viewBox="0 0 12 12" fill="none" xmlns="http://www.w3.org/2000/svg">
<path d="M4.19014 4.42661C4.53814 5.15142 5.01253 5.83075 5.61332 6.43153C6.21411 7.03232 6.89343 7.50672 7.61824 7.85472C7.68059 7.88465 7.71176 7.89962 7.7512 7.91112C7.89138 7.95198 8.06351 7.92263 8.18222 7.83762C8.21563 7.8137 8.24421 7.78512 8.30136 7.72797C8.47617 7.55316 8.56357 7.46576 8.65146 7.40862C8.9829 7.19312 9.41019 7.19312 9.74164 7.40862C9.82953 7.46576 9.91693 7.55316 10.0917 7.72797L10.1892 7.8254C10.4549 8.09112 10.5877 8.22398 10.6599 8.36667C10.8035 8.65045 10.8035 8.98559 10.6599 9.26937C10.5877 9.41206 10.4549 9.54492 10.1892 9.81064L10.1103 9.88946C9.84554 10.1543 9.71313 10.2867 9.53312 10.3878C9.33336 10.5 9.02312 10.5807 8.79401 10.58C8.58753 10.5794 8.44642 10.5393 8.1642 10.4592C6.6475 10.0288 5.21632 9.21651 4.02233 8.02252C2.82834 6.82853 2.0161 5.39735 1.58562 3.88066C1.50551 3.59843 1.46546 3.45732 1.46485 3.25085C1.46417 3.02174 1.54485 2.71149 1.65706 2.51174C1.75818 2.33172 1.89059 2.19932 2.1554 1.93451L2.23422 1.85569C2.49994 1.58997 2.6328 1.45711 2.77549 1.38493C3.05927 1.2414 3.3944 1.2414 3.67818 1.38493C3.82087 1.45711 3.95373 1.58997 4.21945 1.85569L4.31689 1.95312C4.49169 2.12793 4.57909 2.21533 4.63624 2.30322C4.85173 2.63466 4.85173 3.06195 4.63624 3.3934C4.57909 3.48129 4.49169 3.56869 4.31689 3.74349C4.25973 3.80065 4.23115 3.82922 4.20723 3.86263C4.12223 3.98135 4.09288 4.15348 4.13374 4.29365C4.14524 4.3331 4.1602 4.36427 4.19014 4.42661Z" stroke="#2E90FA" stroke-width="1.5" stroke-linecap="round" stroke-linejoin="round"/>
</svg>
