<svg width="82" height="82" viewBox="0 0 82 82" fill="none" xmlns="http://www.w3.org/2000/svg">
<rect x="1.42857" y="1.42857" width="77.1429" height="77.1429" rx="38.5714" fill="#EFF8FF"/>
<rect x="1.42857" y="1.42857" width="77.1429" height="77.1429" rx="38.5714" stroke="#B2DDFF" stroke-width="2.85714"/>
<path d="M32.2443 33.2569C33.7357 36.3632 35.7688 39.2746 38.3436 41.8494C40.9185 44.4242 43.8298 46.4573 46.9362 47.9488C47.2033 48.0771 47.3369 48.1412 47.506 48.1905C48.1068 48.3656 48.8445 48.2398 49.3532 47.8755C49.4964 47.773 49.6189 47.6505 49.8638 47.4056C50.613 46.6564 50.9876 46.2818 51.3642 46.0369C52.7847 45.1134 54.616 45.1134 56.0364 46.0369C56.4131 46.2818 56.7877 46.6564 57.5368 47.4056L57.9544 47.8231C59.0932 48.9619 59.6626 49.5313 59.9719 50.1429C60.5871 51.3591 60.5871 52.7954 59.9719 54.0116C59.6626 54.6231 59.0932 55.1925 57.9544 56.3313L57.6166 56.6691C56.4817 57.804 55.9143 58.3714 55.1428 58.8048C54.2867 59.2857 52.9571 59.6315 51.9752 59.6286C51.0903 59.626 50.4855 59.4543 49.276 59.111C42.7758 57.2661 36.6422 53.785 31.5251 48.6679C26.408 43.5508 22.927 37.4172 21.0821 30.9171C20.7388 29.7076 20.5671 29.1028 20.5645 28.2179C20.5615 27.236 20.9073 25.9064 21.3882 25.0503C21.8216 24.2788 22.3891 23.7113 23.524 22.5764L23.8618 22.2386C25.0006 21.0998 25.57 20.5304 26.1815 20.2211C27.3977 19.606 28.834 19.606 30.0502 20.2211C30.6617 20.5304 31.2311 21.0998 32.3699 22.2386L32.7875 22.6562C33.5367 23.4054 33.9112 23.78 34.1561 24.1566C35.0797 25.5771 35.0797 27.4083 34.1561 28.8288C33.9112 29.2055 33.5367 29.5801 32.7875 30.3292C32.5426 30.5742 32.4201 30.6967 32.3176 30.8398C31.9532 31.3486 31.8275 32.0863 32.0026 32.6871C32.0519 32.8561 32.116 32.9897 32.2443 33.2569Z" stroke="#2E90FA" stroke-width="4.28571" stroke-linecap="round" stroke-linejoin="round"/>
<rect x="55" y="55" width="26" height="26" rx="13" fill="#079455"/>
<rect x="55" y="55" width="26" height="26" rx="13" stroke="#F8FAFC" stroke-width="2"/>
<path d="M63.5 68L66.5 71L72.5 65" stroke="white" stroke-width="2" stroke-linecap="round" stroke-linejoin="round"/>
</svg>
