<svg width="20" height="20" viewBox="0 0 20 20" fill="none" xmlns="http://www.w3.org/2000/svg">
<path d="M11.6663 1.89128V5.33339C11.6663 5.8001 11.6663 6.03346 11.7572 6.21172C11.8371 6.36852 11.9645 6.496 12.1213 6.5759C12.2996 6.66673 12.533 6.66673 12.9997 6.66673H16.4418M13.333 15.4167L12.083 14.1667M11.6663 1.66667H7.33301C5.93288 1.66667 5.23281 1.66667 4.69803 1.93915C4.22763 2.17883 3.84517 2.56128 3.60549 3.03169C3.33301 3.56647 3.33301 4.26653 3.33301 5.66667V14.3333C3.33301 15.7335 3.33301 16.4335 3.60549 16.9683C3.84517 17.4387 4.22763 17.8212 4.69803 18.0608C5.23281 18.3333 5.93288 18.3333 7.33301 18.3333H12.6663C14.0665 18.3333 14.7665 18.3333 15.3013 18.0608C15.7717 17.8212 16.1542 17.4387 16.3939 16.9683C16.6663 16.4335 16.6663 15.7335 16.6663 14.3333V6.66667L11.6663 1.66667ZM12.9163 12.0833C12.9163 13.6942 11.6105 15 9.99967 15C8.38884 15 7.08301 13.6942 7.08301 12.0833C7.08301 10.4725 8.38884 9.16667 9.99967 9.16667C11.6105 9.16667 12.9163 10.4725 12.9163 12.0833Z" stroke="#FF4700" stroke-width="1.66667" stroke-linecap="round" stroke-linejoin="round"/>
</svg>
