<svg width="20" height="20" viewBox="0 0 20 20" fill="none" xmlns="http://www.w3.org/2000/svg">
<path d="M18.3337 7.44281C18.3337 6.93796 18.3337 6.68554 18.2338 6.56865C18.1472 6.46723 18.0173 6.41341 17.8843 6.42387C17.7311 6.43594 17.5526 6.61443 17.1956 6.97141L14.167 10L17.1956 13.0286C17.5526 13.3856 17.7311 13.5641 17.8843 13.5761C18.0173 13.5866 18.1472 13.5328 18.2338 13.4313C18.3337 13.3145 18.3337 13.062 18.3337 12.5572V7.44281Z" stroke="#FF4700" stroke-width="1.66667" stroke-linecap="round" stroke-linejoin="round"/>
<path d="M1.66699 8.16667C1.66699 6.76654 1.66699 6.06647 1.93948 5.53169C2.17916 5.06129 2.56161 4.67884 3.03202 4.43915C3.5668 4.16667 4.26686 4.16667 5.66699 4.16667H10.167C11.5671 4.16667 12.2672 4.16667 12.802 4.43915C13.2724 4.67884 13.6548 5.06129 13.8945 5.53169C14.167 6.06647 14.167 6.76654 14.167 8.16667V11.8333C14.167 13.2335 14.167 13.9335 13.8945 14.4683C13.6548 14.9387 13.2724 15.3212 12.802 15.5609C12.2672 15.8333 11.5671 15.8333 10.167 15.8333H5.66699C4.26686 15.8333 3.5668 15.8333 3.03202 15.5609C2.56161 15.3212 2.17916 14.9387 1.93948 14.4683C1.66699 13.9335 1.66699 13.2335 1.66699 11.8333V8.16667Z" stroke="#FF4700" stroke-width="1.66667" stroke-linecap="round" stroke-linejoin="round"/>
</svg>
