<svg width="154" height="28" viewBox="0 0 154 28" fill="none" xmlns="http://www.w3.org/2000/svg">
<g clip-path="url(#clip0_15119_26500)">
<path d="M38.0229 4.08891C37.4833 4.14824 36.9667 4.27274 36.5211 4.45063C36.3027 4.53787 35.8281 4.76329 35.7967 4.79471C35.7868 4.80442 35.7313 4.83623 35.673 4.86538C35.6147 4.8945 35.5511 4.93068 35.5316 4.94581C35.5122 4.96097 35.3655 5.0679 35.2054 5.18349C34.6969 5.55096 34.0809 6.21876 33.7521 6.75893C33.6199 6.97625 33.3584 7.48988 33.3584 7.53229C33.3584 7.54971 33.3281 7.62862 33.2911 7.70763C33.216 7.86831 33.1053 8.24727 33.0169 8.6464C32.9796 8.81493 32.9507 9.16236 32.9374 9.60051L32.9167 10.2896L30.8848 10.3084V11.7031V13.0978L32.9167 13.1166L32.9346 21.8272H36.1147V17.4845C36.1147 13.5571 36.12 13.1398 36.1705 13.1204C36.2013 13.1086 36.8773 13.0989 37.6724 13.0989H39.1184V10.308L36.1324 10.2896L36.1225 9.91437C36.0931 8.80856 36.4285 8.02029 37.1985 7.38581C37.3628 7.25026 37.9293 6.95021 38.0204 6.95021C38.0529 6.95021 38.0946 6.93523 38.113 6.91692C38.178 6.85254 38.612 6.80939 39.1979 6.80914L39.4689 6.809L39.7898 6.79844V4.05255L39.0212 4.0581C38.5985 4.06117 38.1494 4.07503 38.0229 4.08891Z" fill="black" fill-opacity="0.988"/>
<path d="M40.3943 17.3022C40.494 18.0792 40.57 18.4582 40.7071 18.8589C40.782 19.0788 40.9926 19.5603 41.0622 19.6716C41.0802 19.7008 41.1463 19.8121 41.2089 19.919C41.2714 20.0259 41.3315 20.1213 41.3428 20.131C41.3537 20.1407 41.4287 20.237 41.5089 20.345C41.8827 20.8481 42.6209 21.4352 43.1775 21.6722C43.9037 21.9817 44.5804 22.1107 45.4691 22.1091C46.0692 22.1081 46.8233 21.9959 47.1226 21.863C47.1614 21.8458 47.2328 21.8208 47.2816 21.8076C47.3749 21.7821 47.5841 21.6934 47.847 21.5676C47.9883 21.5 48.0555 21.4603 48.3201 21.2877C48.5816 21.1172 48.999 20.7321 49.181 20.4937C49.229 20.4306 49.2824 20.3878 49.2997 20.3985C49.317 20.4092 49.3311 20.735 49.3311 21.1226V21.8272H52.5468V15.5372V9.24713H49.3311V12.8842C49.3311 15.0256 49.3174 16.5914 49.2976 16.6918C49.2912 16.7246 49.2831 16.7709 49.2746 16.8237L49.2743 16.8977L49.2467 17.0005C49.2396 17.0492 49.2326 17.0976 49.2265 17.1419C49.2061 17.2957 49.175 17.4388 49.158 17.4599C49.141 17.4811 49.1156 17.554 49.1011 17.6221C49.0689 17.774 48.8392 18.2145 48.6763 18.4364C48.5739 18.5757 48.3859 18.7618 48.1664 18.9406C48.0329 19.0497 47.6201 19.2285 47.3169 19.3089C46.8385 19.4358 46.1056 19.4406 45.6243 19.3201C45.0415 19.1743 44.58 18.8823 44.2602 18.4565C44.2214 18.4047 44.1694 18.34 44.145 18.3125C44.0712 18.2295 43.8631 17.7967 43.7705 17.5337C43.7136 17.3722 43.6729 17.2493 43.644 17.0578L43.6277 17.0037L43.6273 16.9282C43.5729 16.4284 43.5712 15.4793 43.5712 12.9031V9.24713H40.3555V10.097L40.3738 16.7751C40.3795 17.0642 40.3862 17.2392 40.3943 17.3022Z" fill="black" fill-opacity="0.988"/>
<path d="M60.6561 8.98676C60.4897 9.0039 59.9098 9.13503 59.808 9.17857C59.7691 9.19521 59.6656 9.22695 59.5783 9.2491C59.491 9.27126 59.4034 9.30207 59.3839 9.31759C59.3645 9.33314 59.2769 9.3666 59.1896 9.39194C59.1023 9.41731 59.0224 9.44678 59.0129 9.45742C59.003 9.46809 58.8917 9.53085 58.7655 9.59686C58.3609 9.80835 58.1549 9.96136 57.7991 10.3149C57.6079 10.5051 57.4446 10.6606 57.4369 10.6606C57.4291 10.6606 57.4227 10.3426 57.4227 9.95387V9.24712H54.207V9.39565L54.2247 21.8095H57.4051L57.4256 18.0108C57.4383 15.6073 57.4436 14.6573 57.4807 14.1784L57.481 14.0707L57.4959 14.0223C57.5195 13.8243 57.5531 13.7224 57.6022 13.5759C57.8856 12.7319 58.362 12.1955 59.1189 11.8675C59.5214 11.693 60.4257 11.596 60.8328 11.6835C60.9105 11.7003 61.0695 11.7328 61.1862 11.7558C61.3028 11.7787 61.5332 11.863 61.6985 11.9429C62.1092 12.1417 62.5654 12.5939 62.7852 13.0197C62.8679 13.1798 62.9353 13.3307 62.9357 13.3551C62.9357 13.3794 62.959 13.4442 62.9876 13.4991C63.0534 13.6251 63.1445 14.1114 63.1841 14.5477C63.2011 14.7324 63.2156 16.4458 63.2163 18.3553L63.218 21.8272H66.4005L66.3991 21.2931L66.3867 17.7016C66.3733 13.7248 66.3701 13.5606 66.2998 13.1519C66.2178 12.6775 66.1267 12.2689 66.0786 12.1625C66.0613 12.1236 66.0245 12.0282 65.997 11.9504C65.921 11.7363 65.8203 11.4932 65.7991 11.4734C65.7885 11.4637 65.7323 11.3632 65.674 11.2502C65.4372 10.7912 64.9333 10.2273 64.4446 9.87447C64.1057 9.62958 64.0714 9.60802 63.916 9.54092C63.8432 9.5095 63.7834 9.47028 63.7834 9.45378C63.7834 9.43731 63.7637 9.42367 63.7393 9.42349C63.7149 9.42332 63.6156 9.38406 63.5184 9.33625C63.4212 9.28843 63.3202 9.24882 63.294 9.24822C63.2679 9.24762 63.1961 9.2249 63.135 9.19776C63.0739 9.17062 62.8724 9.11295 62.688 9.06963C62.4039 9.00291 62.2332 8.98937 61.5749 8.98153C61.1473 8.97641 60.7338 8.97877 60.6561 8.98676Z" fill="black" fill-opacity="0.988"/>
<path fill-rule="evenodd" clip-rule="evenodd" d="M77.4952 10.916L77.1814 10.5851C77.0086 10.4031 76.7623 10.1752 76.6336 10.0785C76.505 9.9818 76.3997 9.89038 76.3997 9.87529C76.3997 9.86985 76.3979 9.86473 76.3948 9.86045C76.3884 9.85639 76.3824 9.85257 76.3767 9.84897C76.3739 9.84826 76.3711 9.84787 76.3679 9.84787C76.3594 9.84787 76.3276 9.83335 76.2827 9.80978C76.2767 9.80776 76.2711 9.80469 76.2661 9.80094C76.222 9.77723 76.1675 9.74638 76.1117 9.71278C75.8142 9.53372 75.3495 9.3182 75.1099 9.2482C75.0322 9.22547 74.9367 9.1936 74.8979 9.17741C74.859 9.1612 74.6682 9.11063 74.4738 9.06501C74.1526 8.98967 74.0399 8.98211 73.237 8.98211C72.4342 8.98211 72.3214 8.98967 72.0002 9.06501C71.8059 9.11063 71.615 9.16155 71.5762 9.17823C71.5373 9.19491 71.4338 9.22795 71.3465 9.25169C71.2592 9.27544 71.1716 9.3059 71.1521 9.3194C71.1327 9.3329 71.0549 9.36382 70.9797 9.38813C70.7722 9.45499 70.2736 9.75299 69.8976 10.0347C69.0167 10.6948 68.2852 11.7101 67.9191 12.7809C67.876 12.9072 67.8272 13.0424 67.8106 13.0812C67.7944 13.1201 67.7477 13.2791 67.7071 13.4346C67.3866 14.6681 67.3922 16.2875 67.7226 17.6221C67.7537 17.7484 67.7937 17.8836 67.8113 17.9224C67.8286 17.9613 67.8615 18.0567 67.8841 18.1345C67.9064 18.2122 67.9474 18.3259 67.9749 18.3872C68.0022 18.4484 68.0248 18.5078 68.0248 18.5191C68.0248 18.5657 68.3629 19.2437 68.4721 19.4161C68.5372 19.5186 68.5902 19.6166 68.5902 19.634C68.5902 19.6515 68.6022 19.671 68.617 19.6775C68.6315 19.684 68.7312 19.8083 68.8379 19.9537C69.1008 20.3121 69.3609 20.5867 69.7298 20.8952C70.0348 21.1502 70.3991 21.4032 70.4609 21.4032C70.4782 21.4032 70.4977 21.4151 70.5044 21.4297C70.5256 21.4774 71.1966 21.7919 71.2772 21.7919C71.2998 21.7919 71.3684 21.8139 71.4295 21.8407C71.7949 22.0009 72.5525 22.1107 73.2798 22.1087C73.9318 22.107 74.7717 21.9858 74.9947 21.8615C75.0283 21.8426 75.076 21.8266 75.1007 21.8258C75.2378 21.8214 75.7887 21.5597 76.3248 21.2442C76.5199 21.1292 77.0238 20.6345 77.2609 20.3254L77.4775 20.0427L77.4962 21.8279L80.7285 21.8095L80.7462 4.05255H77.4955L77.4952 4.18591V10.916ZM72.1451 12.3922C72.467 12.1286 73.0773 11.8677 73.5551 11.7892C73.8681 11.7378 74.6208 11.7782 74.9155 11.8622C75.2276 11.9512 75.5643 12.0808 75.5809 12.1183C75.5877 12.1329 75.612 12.1448 75.6357 12.1448C75.6993 12.1448 76.1732 12.4441 76.3202 12.5771C76.5782 12.8105 76.8821 13.1607 76.933 13.2833C76.9552 13.3374 76.9853 13.3816 76.9997 13.3816C77.0457 13.3816 77.2895 13.954 77.3764 14.265C77.5581 14.9173 77.5542 16.0848 77.368 16.7415C77.316 16.9246 77.2619 17.0903 77.2478 17.1097C77.2337 17.1291 77.2107 17.1926 77.1969 17.2507C77.1828 17.3088 77.1609 17.3645 77.1478 17.3745C77.1347 17.3845 77.0701 17.496 77.0036 17.6222C76.7994 18.012 76.4555 18.4083 76.0598 18.711C75.881 18.8476 75.3163 19.1416 75.2325 19.1416C75.1989 19.1416 75.1131 19.166 75.0417 19.1958C74.8678 19.2685 74.1986 19.3146 73.7848 19.2823C73.6003 19.2679 73.3296 19.2201 73.184 19.176C72.2296 18.8876 71.4362 18.1255 71.0334 17.1097C70.8599 16.6725 70.8136 16.4496 70.7217 15.6112C70.71 15.5061 70.7196 15.2835 70.7426 15.1165C70.8313 14.4761 70.8631 14.2975 70.8924 14.2795C70.909 14.2692 70.9224 14.226 70.9224 14.1834C70.9228 14.0465 71.2274 13.4253 71.4366 13.1346C71.6094 12.8947 71.8885 12.6021 72.1451 12.3922Z" fill="black" fill-opacity="0.988"/>
<path d="M85.7635 21.8272V9.24713H82.5479V21.8239C82.5489 21.8245 82.55 21.8251 82.5514 21.8257C82.5528 21.8262 82.5539 21.8267 82.5553 21.8272H85.7635Z" fill="black" fill-opacity="0.988"/>
<path d="M83.926 3.40393C83.5574 3.47708 83.1825 3.60825 83.0602 3.7067C83.0408 3.72236 82.9436 3.79812 82.8447 3.87508C82.4842 4.15449 82.1987 4.60727 82.1287 5.00955C82.0478 5.47586 82.0895 5.99408 82.233 6.29879C82.2701 6.37781 82.3005 6.46128 82.3005 6.48432C82.3005 6.50732 82.3128 6.52616 82.3277 6.52616C82.3429 6.52616 82.386 6.58337 82.4234 6.65326C82.5358 6.86214 82.9828 7.25223 83.2659 7.38849C83.8186 7.65458 84.6041 7.64253 85.1289 7.3599C85.7027 7.05091 86.0487 6.6081 86.2059 5.98044C86.2738 5.71075 86.2625 5.19906 86.1823 4.90036C86.0438 4.38372 85.5759 3.82586 85.0921 3.60097C84.8744 3.49975 84.5303 3.42114 84.2521 3.39766C84.162 3.39529 84.073 3.39425 83.9949 3.39443C83.9698 3.39663 83.9468 3.39979 83.926 3.40393Z" fill="black" fill-opacity="0.988"/>
<path d="M93.9968 8.98682C93.7837 9.01336 93.2067 9.14601 93.0957 9.19389C93.0374 9.21905 92.9339 9.2511 92.866 9.26513C92.7982 9.27916 92.7264 9.30259 92.707 9.31726C92.6876 9.33192 92.6116 9.36323 92.5384 9.3868C92.2508 9.47945 91.4525 9.95142 91.4525 10.0288C91.4525 10.0459 91.4352 10.0599 91.414 10.0599C91.3766 10.0599 91.114 10.3156 90.9048 10.5563L90.7988 10.6783L90.7984 10.6485L90.7811 10.6703V9.3556L90.7797 9.24711H87.5654V21.8279L90.7635 21.8095L90.7991 14L90.8787 13.7745C90.9221 13.6505 90.9578 13.5349 90.9578 13.5176C90.9578 13.4242 91.2787 12.8375 91.4384 12.639C91.7275 12.2799 91.937 12.113 92.337 11.9237C92.5798 11.8089 92.712 11.7715 93.1841 11.6838C93.6919 11.5895 94.5085 11.6983 94.9838 11.9236C95.364 12.1039 95.5704 12.2653 95.8047 12.567C95.9188 12.7138 96.0255 12.8504 96.0414 12.8705C96.0927 12.9354 96.2584 13.28 96.2588 13.3226C96.2588 13.3453 96.2821 13.4088 96.3107 13.4636C96.368 13.5729 96.4584 13.9769 96.5068 14.3357C96.5234 14.462 96.5383 16.1993 96.5393 18.1963L96.5411 21.8272H99.7215V17.8076C99.7218 13.9105 99.7197 13.7723 99.6476 13.2756C99.573 12.7597 99.4603 12.2772 99.3384 11.9504C99.2433 11.6951 99.1596 11.4989 99.1197 11.438C99.1006 11.4089 99.0684 11.346 99.0483 11.2983C99.0278 11.2506 98.9561 11.1353 98.8893 11.042C98.8221 10.9488 98.7674 10.8619 98.7674 10.849C98.7674 10.8176 98.7246 10.7705 98.338 10.3768C97.9617 9.99312 97.8659 9.91007 97.6189 9.75123C97.5217 9.68879 97.4263 9.62533 97.4069 9.61024C97.345 9.56218 96.9019 9.35312 96.8623 9.35312C96.8411 9.35312 96.8238 9.33899 96.8238 9.32171C96.8238 9.30446 96.7641 9.27927 96.6913 9.26577C96.6185 9.25231 96.5111 9.22068 96.4528 9.19552C96.3945 9.17036 96.2036 9.114 96.0287 9.07025C95.7545 9.00173 95.6011 8.98943 94.9156 8.98106C94.4781 8.97576 94.0647 8.97834 93.9968 8.98682Z" fill="black" fill-opacity="0.988"/>
<path fill-rule="evenodd" clip-rule="evenodd" d="M105.393 8.98692C105.201 9.00657 104.562 9.13834 104.475 9.1764C104.436 9.19336 104.325 9.23092 104.227 9.25983C103.993 9.32965 103.702 9.43666 103.68 9.46118C103.67 9.47199 103.606 9.50288 103.538 9.52984C103.47 9.5568 103.407 9.58772 103.397 9.59857C103.387 9.60942 103.332 9.64211 103.273 9.67119C103.215 9.70027 103.159 9.73211 103.15 9.7419C103.14 9.75172 103.06 9.80692 102.973 9.86455C102.604 10.1079 102.22 10.4654 101.977 10.7916C101.893 10.9042 101.817 11.0043 101.807 11.014C101.746 11.0741 101.479 11.6162 101.389 11.8621C101.038 12.8212 101.051 14.0202 101.423 14.9541C101.501 15.1495 101.638 15.439 101.665 15.4665C101.675 15.4762 101.707 15.5319 101.736 15.5902C101.765 15.6485 101.809 15.7089 101.833 15.7245C101.858 15.74 101.878 15.7718 101.878 15.7951C101.878 15.8185 101.966 15.9402 102.072 16.0656C102.179 16.191 102.266 16.3047 102.266 16.3181C102.266 16.3316 102.186 16.3942 102.087 16.4573C101.876 16.5927 101.74 16.7041 101.544 16.8998C101.394 17.0496 101.206 17.2664 101.206 17.2893C101.206 17.2967 101.153 17.3865 101.088 17.4889C101.023 17.5913 100.925 17.8023 100.871 17.9578C100.786 18.2002 100.77 18.3109 100.755 18.7352C100.739 19.2239 100.786 19.7247 100.854 19.7935C100.873 19.812 100.888 19.8498 100.888 19.8775C100.888 19.963 101.097 20.3443 101.259 20.5555C101.345 20.666 101.494 20.8177 101.593 20.8927C101.691 20.9676 101.771 21.0416 101.771 21.057C101.771 21.0725 101.791 21.0857 101.816 21.0863C101.858 21.0874 102.019 21.2049 102.019 21.235C102.019 21.2432 101.936 21.3035 101.835 21.3691C101.734 21.4346 101.625 21.5128 101.593 21.5429C101.562 21.5729 101.458 21.6694 101.362 21.7572C100.929 22.1547 100.637 22.7095 100.534 23.3291C100.496 23.5541 100.496 24.2242 100.534 24.4775C100.635 25.157 100.933 25.755 101.405 26.2224C101.67 26.4843 102.171 26.8345 102.478 26.9711L102.553 27.0048C102.609 27.0295 102.669 27.0561 102.708 27.0736C103.168 27.2797 103.704 27.4238 104.492 27.5534C104.758 27.5971 104.967 27.6129 105.619 27.6185C105.833 27.6178 106.086 27.6158 106.392 27.6135L106.489 27.6128C107.309 27.6065 107.762 27.602 108.042 27.5911C108.126 27.5816 108.195 27.5692 108.273 27.5531C108.719 27.4613 109.053 27.3802 109.139 27.3425C109.178 27.3256 109.313 27.2762 109.44 27.2327C109.8 27.1085 110.538 26.7394 110.679 26.6125C110.71 26.5849 110.746 26.5624 110.759 26.5624C110.772 26.5624 110.812 26.5346 110.849 26.5006C110.885 26.4666 110.968 26.399 111.032 26.3504C111.309 26.141 111.68 25.7399 111.882 25.4316C112.327 24.7529 112.496 24.0358 112.439 23.064C112.366 21.8035 111.916 20.9019 111.061 20.2972C110.816 20.1233 110.184 19.813 110.076 19.813C110.052 19.813 109.983 19.7902 109.922 19.7624C109.861 19.7346 109.691 19.6855 109.546 19.6533C108.939 19.5196 108.551 19.4942 106.613 19.4611C105.553 19.4431 104.623 19.4143 104.545 19.3973C104.35 19.3545 104.062 19.2452 103.995 19.1886C103.964 19.1628 103.925 19.1416 103.907 19.1416C103.889 19.1416 103.809 19.0694 103.73 18.9812C103.629 18.87 103.567 18.7564 103.526 18.6107C103.455 18.3541 103.454 18.2879 103.521 18.0689C103.608 17.7823 103.717 17.6378 103.952 17.4987C104.068 17.4302 104.094 17.4353 104.475 17.6042C104.649 17.6816 105.058 17.7929 105.34 17.8399C105.742 17.9067 106.9 17.8962 107.39 17.8212C107.613 17.7871 107.812 17.7442 107.83 17.7259C107.848 17.7077 107.892 17.6928 107.927 17.6928C108.089 17.6928 108.898 17.3582 109.298 17.1257C109.635 16.9302 110.298 16.3443 110.521 16.0455C110.577 15.97 110.631 15.9003 110.641 15.8906C110.753 15.7803 111.135 15.0644 111.135 14.963C111.135 14.929 111.15 14.9011 111.166 14.9011C111.183 14.9011 111.217 14.8017 111.242 14.6803C111.267 14.5588 111.302 14.432 111.319 14.3986C111.335 14.3651 111.366 14.1221 111.387 13.8585C111.428 13.3368 111.393 12.8212 111.293 12.4867C111.144 11.9886 111.1 11.8365 111.08 11.7473L111.057 11.6501H112.761V9.24714H110.496C108.665 9.24714 108.21 9.23792 108.12 9.19912C108.059 9.17269 107.842 9.1142 107.637 9.06911C107.313 8.99738 107.159 8.98625 106.401 8.97985C105.924 8.97579 105.471 8.979 105.393 8.98692ZM105.429 11.5747C105.468 11.558 105.563 11.53 105.641 11.5124C105.964 11.4395 106.859 11.4771 107.09 11.5733C107.373 11.6918 107.671 11.8664 107.822 12.0022C108.035 12.1949 108.294 12.5478 108.329 12.6932C108.342 12.7512 108.367 12.8157 108.384 12.8367C108.4 12.8577 108.431 12.9955 108.453 13.1429C108.494 13.418 108.453 13.9453 108.384 14.0316C108.366 14.0531 108.342 14.1213 108.328 14.1831C108.315 14.2449 108.282 14.3144 108.254 14.3376C108.226 14.3608 108.203 14.4 108.203 14.4248C108.203 14.4495 108.088 14.5868 107.947 14.7297C107.488 15.1952 107.022 15.3736 106.259 15.3765C105.512 15.3793 105.005 15.1996 104.621 14.7953C104.288 14.4456 104.155 14.1745 104.102 13.738C104.017 13.0411 104.191 12.5092 104.651 12.0567C104.886 11.8257 104.98 11.7671 105.429 11.5747ZM104.763 22.1797C104.895 22.1586 105.01 22.1337 105.02 22.1243C105.029 22.1148 105.714 22.1132 106.541 22.1207C107.966 22.1335 108.308 22.1555 108.503 22.2471C108.542 22.2653 108.653 22.3168 108.751 22.3615C109.146 22.5434 109.378 22.8655 109.454 23.3369C109.494 23.5864 109.493 23.6691 109.452 23.8664C109.382 24.2009 109.263 24.3808 108.963 24.607C108.701 24.8037 108.317 24.9609 107.796 25.0834C107.515 25.1497 107.399 25.1636 106.813 25.1657C106.624 25.1708 106.425 25.1705 106.231 25.1647C105.777 25.1605 105.483 25.1458 105.376 25.122C105.269 25.098 105.078 25.056 104.952 25.0286C104.539 24.939 104.274 24.8253 103.962 24.6051C103.723 24.4357 103.667 24.3706 103.545 24.1241C103.462 23.954 103.45 23.8876 103.45 23.5906C103.45 23.404 103.468 23.2132 103.491 23.1665C103.513 23.1199 103.551 23.03 103.574 22.9669C103.598 22.9037 103.632 22.852 103.649 22.852C103.666 22.852 103.68 22.8295 103.68 22.802C103.68 22.7246 103.968 22.4895 104.197 22.3795C104.311 22.325 104.431 22.2663 104.464 22.2492C104.497 22.232 104.631 22.2007 104.763 22.1797Z" fill="black" fill-opacity="0.988"/>
<path fill-rule="evenodd" clip-rule="evenodd" d="M116.969 19.7246L117.047 19.8166C117.091 19.8671 117.15 19.9451 117.179 19.9899C117.356 20.2619 117.792 20.7076 117.987 20.8169C118.019 20.8347 118.057 20.8704 118.073 20.8965C118.079 20.9061 118.086 20.9151 118.094 20.9226C118.102 20.9284 118.11 20.9341 118.118 20.9398C118.124 20.9424 118.129 20.9438 118.134 20.9438C118.152 20.9438 118.251 20.9964 118.353 21.0607C119.253 21.6258 120.46 21.8884 121.72 21.7933C122.011 21.7713 122.289 21.739 122.338 21.7216C122.387 21.7041 122.522 21.6717 122.638 21.6495C122.92 21.5958 123.305 21.4601 123.716 21.2688C123.908 21.1796 124.456 20.8345 124.569 20.7317C124.601 20.7026 124.673 20.6412 124.729 20.5953C124.992 20.3773 125.421 19.936 125.571 19.7283C125.61 19.6745 125.669 19.5981 125.703 19.5585C125.795 19.4492 126.084 18.9779 126.084 18.9365C126.084 18.9165 126.096 18.8948 126.11 18.8883C126.125 18.8818 126.171 18.805 126.213 18.7175C126.356 18.4194 126.473 18.1565 126.473 18.1331C126.473 18.1203 126.495 18.0597 126.522 17.9984C126.549 17.9372 126.611 17.7519 126.66 17.5867C127.007 16.4049 127.094 15.1816 126.914 13.9823C126.831 13.4249 126.748 13.0215 126.684 12.8692C126.668 12.8303 126.636 12.7349 126.613 12.6572C126.591 12.5794 126.55 12.4657 126.522 12.4045C126.495 12.3432 126.473 12.2798 126.473 12.2636C126.473 12.2286 126.048 11.3657 126.005 11.3143C125.989 11.2949 125.926 11.1995 125.864 11.1023C125.468 10.479 124.75 9.78258 124.142 9.43179C124.054 9.38066 123.974 9.33012 123.964 9.31949C123.947 9.30175 123.839 9.24768 123.504 9.08965C122.992 8.84809 122.059 8.65401 121.333 8.632C121.276 8.63154 121.215 8.63147 121.154 8.63172L121.127 8.63186L121.07 8.63214C120.374 8.65575 119.419 8.86152 118.999 9.08442C118.94 9.11534 118.865 9.14075 118.831 9.14089C118.797 9.141 118.769 9.15312 118.769 9.16782C118.769 9.18252 118.693 9.22927 118.601 9.27175C118.445 9.34352 118.135 9.53388 118.038 9.61731C118.015 9.63721 117.938 9.69325 117.867 9.74184C117.796 9.79043 117.565 10.0043 117.352 10.2171L116.967 10.6041V3.76984H113.716V21.4316C113.719 21.4718 113.723 21.4958 113.727 21.5092H116.964C116.965 21.5077 116.966 21.5062 116.967 21.5045L116.969 19.7246ZM118.618 11.9381C118.888 11.7797 119.419 11.5751 119.734 11.5081C119.791 11.4961 119.973 11.4881 120.191 11.4867C120.343 11.4781 120.497 11.4801 120.651 11.4923C121.036 11.5025 121.144 11.5201 121.349 11.5878C121.708 11.7066 122.196 11.9511 122.196 12.0123C122.197 12.0269 122.215 12.0388 122.237 12.0388C122.308 12.0388 122.717 12.422 122.934 12.6919C123.11 12.911 123.245 13.1495 123.474 13.6466C123.614 13.9509 123.712 14.5564 123.714 15.1308C123.716 15.6019 123.661 16.1986 123.61 16.2616C123.594 16.281 123.57 16.3605 123.557 16.4383C123.543 16.516 123.51 16.6148 123.483 16.6579C123.455 16.7009 123.434 16.7585 123.434 16.7857C123.434 16.8735 123.136 17.4202 122.949 17.6751C122.742 17.9574 122.477 18.2204 122.199 18.4193C121.994 18.5662 121.642 18.7525 121.57 18.7527C121.545 18.7528 121.525 18.7653 121.525 18.7805C121.525 18.7956 121.37 18.8473 121.181 18.8953C120.95 18.9537 120.823 18.974 120.542 18.9801C120.398 18.9981 120.308 18.9987 120.16 18.9823C119.836 18.9802 119.643 18.9664 119.614 18.9432C119.586 18.9216 119.495 18.8932 119.409 18.8802C119.11 18.8345 118.579 18.5633 118.259 18.2935C117.963 18.0429 117.532 17.528 117.532 17.4238C117.532 17.4 117.518 17.3753 117.5 17.3688C117.452 17.3508 117.191 16.7727 117.126 16.5392C117.094 16.4254 117.05 16.2686 117.027 16.1909C116.973 16.0017 116.973 14.37 117.028 14.1767C117.035 14.1512 117.045 14.1181 117.055 14.0815L117.086 13.9695L117.121 13.8464C117.15 13.7426 117.207 13.5877 117.247 13.5023C117.287 13.4169 117.32 13.3309 117.32 13.3113C117.32 13.2916 117.334 13.2756 117.352 13.2756C117.369 13.2756 117.392 13.2398 117.403 13.1961C117.425 13.1103 117.427 13.108 117.741 12.7046C117.962 12.4218 118.304 12.122 118.618 11.9381Z" fill="black" fill-opacity="0.988"/>
<path fill-rule="evenodd" clip-rule="evenodd" d="M133.222 8.99984C132.822 9.05097 131.989 9.25388 131.838 9.33675C131.787 9.36519 131.72 9.38848 131.691 9.38848C131.626 9.38848 130.762 9.82447 130.679 9.89942C130.646 9.92936 130.608 9.95388 130.593 9.95388C130.526 9.95388 129.991 10.3899 129.687 10.6926C129.248 11.1301 129.001 11.4477 128.709 11.9504C128.619 12.1066 128.352 12.6627 128.327 12.7455C128.313 12.7941 128.289 12.8498 128.274 12.8692C128.259 12.8886 128.228 12.9761 128.206 13.0636C128.184 13.151 128.152 13.2544 128.135 13.2933C127.998 13.6154 127.837 14.8033 127.835 15.5195C127.832 16.3834 128.048 17.6362 128.294 18.1751C128.322 18.2364 128.345 18.2988 128.345 18.3139C128.345 18.4026 128.869 19.3867 128.97 19.4886C128.996 19.5143 129.017 19.5478 129.017 19.563C129.017 19.5782 129.052 19.6306 129.096 19.6796C129.14 19.7285 129.207 19.8141 129.246 19.8699C129.495 20.2274 130.278 20.922 130.768 21.2213C130.986 21.3541 131.549 21.6344 131.667 21.6688C131.716 21.6829 131.771 21.7066 131.791 21.7215C131.81 21.7363 131.882 21.7598 131.95 21.7739C132.018 21.7879 132.121 21.8194 132.179 21.8439C132.34 21.9113 132.985 22.0374 133.363 22.0751C133.805 22.1193 134.627 22.1187 135.112 22.074C135.484 22.0397 136.093 21.9255 136.243 21.8621C136.282 21.8456 136.377 21.8138 136.455 21.7913C136.533 21.7688 136.644 21.7292 136.703 21.7032C136.761 21.6772 136.852 21.6451 136.906 21.6318C136.959 21.6184 137.003 21.5965 137.003 21.5831C137.003 21.5697 137.063 21.5374 137.135 21.5113C137.208 21.4852 137.276 21.4542 137.286 21.4424C137.295 21.4305 137.359 21.3924 137.427 21.3575C137.996 21.0662 138.821 20.3674 139.141 19.9044C139.18 19.8482 139.239 19.7728 139.273 19.7369C139.307 19.701 139.335 19.6577 139.335 19.6406C139.335 19.6236 139.358 19.5909 139.385 19.568C139.486 19.4848 139.807 18.9148 139.974 18.5232C140.032 18.3871 140.093 18.2514 140.109 18.2216C140.126 18.1919 140.15 18.1163 140.164 18.0538L140.189 17.9401H138.459C136.842 17.9401 136.727 17.9442 136.707 18.002C136.591 18.3495 136.018 18.9598 135.625 19.156C135.388 19.2741 135.043 19.3916 134.813 19.4324C134.519 19.4847 133.836 19.4853 133.545 19.4334C133.1 19.3539 132.627 19.1517 132.286 18.8942C132.206 18.8344 131.819 18.4456 131.738 18.3445C131.566 18.1301 131.243 17.4542 131.243 17.3087C131.243 17.2751 131.229 17.2324 131.211 17.2139C131.175 17.1748 131.102 16.7666 131.102 16.6032V16.545L131.098 16.5269H131.102V16.4913H135.764C140.173 16.4913 140.427 16.4879 140.444 16.4294C140.5 16.2427 140.544 15.4295 140.523 14.9718C140.494 14.3076 140.353 13.378 140.255 13.2007C140.238 13.1693 140.206 13.0739 140.183 12.9887C140.161 12.9036 140.114 12.7703 140.079 12.6925L139.94 12.3837C139.899 12.2916 139.865 12.2002 139.865 12.1805C139.865 12.1609 139.851 12.1448 139.834 12.1448C139.816 12.1448 139.793 12.1086 139.782 12.0643C139.76 11.9774 139.368 11.3768 139.184 11.1476C138.964 10.8751 138.466 10.4002 138.151 10.1637C137.865 9.9484 137.246 9.56517 137.185 9.56517C137.172 9.56517 137.105 9.5357 137.038 9.49969C136.97 9.46368 136.851 9.41389 136.773 9.38908C136.695 9.36424 136.616 9.33219 136.597 9.31784C136.577 9.30346 136.474 9.27127 136.367 9.24628C136.26 9.2213 136.148 9.18918 136.119 9.1749C136.09 9.16059 135.9 9.1126 135.695 9.06826C135.369 8.99737 135.211 8.98652 134.388 8.97903C133.873 8.97433 133.348 8.98369 133.222 8.99984ZM132.306 12.1625C132.878 11.8185 133.264 11.6678 133.702 11.617C134.567 11.5167 135.319 11.6806 136.005 12.1191C136.229 12.262 136.818 12.8603 136.847 12.9735C136.859 13.023 136.882 13.0636 136.898 13.0636C136.914 13.0636 136.945 13.1232 136.968 13.1961C136.991 13.269 137.03 13.3768 137.057 13.4357C137.109 13.5513 137.179 13.8979 137.205 14.1679L137.222 14.3357H137.18H131.128H131.103L131.124 14.2209C131.232 13.6249 131.451 13.0637 131.704 12.7366C131.847 12.5509 132.166 12.2466 132.306 12.1625Z" fill="black" fill-opacity="0.988"/>
<path fill-rule="evenodd" clip-rule="evenodd" d="M146.667 8.99719C146.385 9.03186 145.833 9.1401 145.766 9.17384C145.737 9.18869 145.626 9.22127 145.519 9.24625C145.412 9.27123 145.309 9.30321 145.289 9.31728C145.27 9.33134 145.198 9.36156 145.13 9.38442C144.943 9.44721 144.822 9.50089 144.586 9.62574C144.467 9.68825 144.315 9.76776 144.247 9.80242C144.179 9.83713 144.115 9.87359 144.105 9.88349C144.095 9.89342 144.016 9.94777 143.929 10.0043C143.504 10.2791 142.886 10.8645 142.538 11.3225C142.311 11.6207 141.983 12.1802 141.846 12.5003C141.784 12.6449 141.719 12.795 141.702 12.8338C141.684 12.8727 141.651 12.9761 141.627 13.0635C141.604 13.151 141.573 13.2384 141.56 13.2579C141.547 13.2773 141.517 13.3966 141.493 13.5229C141.469 13.6492 141.435 13.7844 141.418 13.8233C141.401 13.8622 141.352 14.1802 141.311 14.53C141.248 15.0523 141.238 15.2704 141.256 15.7492C141.283 16.4544 141.435 17.4524 141.561 17.7457C141.578 17.7846 141.61 17.88 141.632 17.9577C141.675 18.1081 141.687 18.1404 141.81 18.4171C142.023 18.8985 142.122 19.084 142.359 19.4419C142.652 19.8842 143.038 20.3349 143.347 20.5947C143.463 20.6923 143.601 20.8088 143.654 20.8537C143.745 20.9317 144.08 21.1622 144.229 21.2505C144.382 21.3413 145.006 21.6505 145.035 21.6505C145.052 21.6505 145.117 21.673 145.178 21.7005C145.239 21.7279 145.353 21.7688 145.431 21.7912C145.508 21.8137 145.604 21.8459 145.643 21.8628C145.714 21.8936 146.161 21.989 146.491 22.0435C146.588 22.0596 146.969 22.0833 147.339 22.0962C148.066 22.1217 148.8 22.0755 149.194 21.9796C149.594 21.8821 150.019 21.7526 150.168 21.6827C150.247 21.6455 150.339 21.6152 150.371 21.6152C150.383 21.6152 150.394 21.6135 150.403 21.6107L150.421 21.6023C150.427 21.5978 150.431 21.5925 150.431 21.5869C150.431 21.5714 150.49 21.5373 150.563 21.5113C150.636 21.4852 150.704 21.4528 150.713 21.4393C150.723 21.4258 150.84 21.354 150.974 21.2798C151.693 20.8806 152.394 20.2034 152.914 19.4066C153.076 19.1579 153.468 18.4124 153.47 18.3465C153.472 18.327 153.503 18.2475 153.54 18.1698C153.578 18.092 153.609 18.0086 153.61 17.9842C153.611 17.9495 153.243 17.9401 151.887 17.9401H150.163L150.058 18.1343C150.001 18.2412 149.943 18.3286 149.93 18.3287C149.916 18.3287 149.895 18.3604 149.883 18.399C149.819 18.6018 149.095 19.1794 148.799 19.2649C148.754 19.2779 148.667 19.3109 148.607 19.3382C148.317 19.4688 147.447 19.5172 146.952 19.4303C146.419 19.3367 145.898 19.0836 145.507 18.7276C145.176 18.4267 144.745 17.7361 144.684 17.41C144.671 17.342 144.648 17.2699 144.633 17.2498C144.597 17.2035 144.53 16.7985 144.53 16.6238V16.5855L144.521 16.5266H144.529V16.4912H153.855L153.884 16.3587C153.926 16.1598 153.912 14.2809 153.867 14.0353C153.654 12.8818 153.237 11.946 152.569 11.12C152.237 10.71 151.76 10.2738 151.35 10.0051C151.262 9.94787 151.183 9.89151 151.173 9.87988C151.136 9.83582 150.274 9.40739 150.148 9.37036C150.099 9.35611 150.044 9.33258 150.024 9.31809C150.005 9.30357 149.902 9.27162 149.795 9.24706C149.688 9.22254 149.584 9.193 149.565 9.18148C149.546 9.16992 149.355 9.12282 149.141 9.07677C148.798 9.00288 148.642 8.99175 147.816 8.9821C147.301 8.9761 146.784 8.98292 146.667 8.99719ZM146.173 11.9041C146.45 11.769 146.848 11.6459 147.104 11.6161C147.9 11.5231 148.604 11.6555 149.265 12.0225C149.555 12.1836 150.039 12.6114 150.166 12.8195C150.46 13.3005 150.548 13.5598 150.632 14.1855L150.652 14.3357H150.603H147.584H144.529L144.55 14.1855C144.572 14.0254 144.734 13.4347 144.779 13.3462C144.794 13.3171 144.849 13.2067 144.902 13.1009C145.075 12.7501 145.398 12.375 145.681 12.1943C145.738 12.1583 145.792 12.1204 145.802 12.1102C145.829 12.0816 145.978 11.9986 146.173 11.9041Z" fill="black" fill-opacity="0.988"/>
<path fill-rule="evenodd" clip-rule="evenodd" d="M83.995 3.39442C83.9699 3.39662 83.9469 3.39978 83.9261 3.40392C83.5575 3.47707 83.1826 3.60824 83.0603 3.70669C83.0409 3.72235 82.9437 3.79811 82.8447 3.87507C82.4843 4.15448 82.1988 4.60726 82.1288 5.00954C82.0479 5.47585 82.0896 5.99407 82.2331 6.29878C82.2702 6.3778 82.3006 6.46127 82.3006 6.48431C82.3006 6.50731 82.3129 6.52614 82.3278 6.52614C82.343 6.52614 82.3861 6.58336 82.4235 6.65325C82.5359 6.86213 82.9829 7.25222 83.266 7.38848C83.8186 7.65457 84.6042 7.64252 85.129 7.35989C85.7028 7.0509 86.0488 6.60809 86.206 5.98043C86.2739 5.71074 86.2626 5.19905 86.1824 4.90035C86.0438 4.38371 85.576 3.82585 85.0922 3.60096C84.8745 3.49974 84.5303 3.42113 84.2522 3.39765L84.2618 3.39791C84.618 3.40767 84.7219 3.42406 84.9106 3.50018C85.2336 3.63057 85.4109 3.74249 85.63 3.95433C85.9219 4.23643 86.0336 4.41103 86.1795 4.81229C86.2562 5.02378 86.2696 5.12113 86.2714 5.48369C86.2732 5.83686 86.2601 5.94534 86.1937 6.13266C86.111 6.36674 85.9986 6.60463 85.9283 6.69428C85.7986 6.85934 85.453 7.21013 85.3926 7.23745C85.3537 7.25508 85.2502 7.31367 85.1629 7.3677C84.9434 7.50322 84.4844 7.62195 84.1869 7.62005C83.5822 7.61623 83.0645 7.39389 82.6529 6.96132C82.2214 6.50823 82.0532 6.09386 82.0532 5.48536C82.0532 4.78667 82.3331 4.23611 82.9289 3.76228C83.0787 3.64312 83.5264 3.44746 83.7494 3.40364C83.7787 3.39791 83.8734 3.39469 83.995 3.39442ZM83.995 3.39442C84.0674 3.38801 84.1558 3.38953 84.2522 3.39765C84.1621 3.39528 84.0731 3.39424 83.995 3.39442ZM121.07 8.63214C120.374 8.65575 119.419 8.86152 118.998 9.08442C118.94 9.11534 118.864 9.14075 118.83 9.14089C118.797 9.141 118.769 9.15312 118.769 9.16782C118.769 9.18252 118.693 9.22927 118.601 9.27175C118.445 9.34352 118.134 9.53388 118.038 9.61731C118.015 9.63721 117.938 9.69325 117.866 9.74184C117.796 9.79043 117.564 10.0043 117.352 10.2171L116.966 10.6041V3.76984H113.715V21.4316C113.684 21.0738 113.68 19.4342 113.68 12.6416C113.68 7.7686 113.691 3.77086 113.704 3.75772C113.717 3.74457 114.461 3.73793 115.356 3.74298L116.984 3.75217L117.002 10.5366L117.293 10.2351C117.649 9.86736 117.775 9.76089 118.145 9.51497C118.744 9.1169 119.222 8.91986 120.058 8.72519C120.387 8.64872 120.515 8.63553 121.07 8.63214ZM121.333 8.632C121.275 8.63154 121.215 8.63147 121.154 8.63172L121.127 8.63186L121.07 8.63214C121.11 8.63076 121.15 8.63002 121.189 8.62992C121.236 8.62981 121.284 8.63052 121.333 8.632ZM118.118 20.9398C118.124 20.9424 118.129 20.9438 118.134 20.9438C118.152 20.9438 118.25 20.9964 118.353 21.0607C119.253 21.6258 120.459 21.8884 121.719 21.7933C122.011 21.7713 122.289 21.739 122.338 21.7216C122.386 21.7041 122.521 21.6717 122.638 21.6495C122.92 21.5958 123.305 21.4601 123.716 21.2688C123.908 21.1796 124.456 20.8345 124.569 20.7317C124.601 20.7026 124.673 20.6412 124.728 20.5953C124.992 20.3773 125.421 19.936 125.571 19.7283C125.61 19.6745 125.669 19.5981 125.703 19.5585C125.795 19.4492 126.083 18.9779 126.083 18.9365C126.083 18.9165 126.095 18.8948 126.11 18.8883C126.124 18.8818 126.171 18.805 126.213 18.7175C126.356 18.4194 126.472 18.1565 126.472 18.1331C126.472 18.1203 126.494 18.0597 126.521 17.9984C126.549 17.9372 126.61 17.7519 126.659 17.5867C127.007 16.4049 127.093 15.1816 126.914 13.9823C126.831 13.4249 126.747 13.0215 126.684 12.8692C126.667 12.8303 126.635 12.7349 126.613 12.6572C126.591 12.5794 126.55 12.4657 126.522 12.4045C126.495 12.3432 126.472 12.2798 126.472 12.2636C126.472 12.2286 126.047 11.3657 126.005 11.3143C125.989 11.2949 125.925 11.1995 125.863 11.1023C125.467 10.479 124.749 9.78258 124.142 9.43179C124.053 9.38066 123.973 9.33012 123.963 9.31949C123.947 9.30175 123.839 9.24768 123.504 9.08965C122.991 8.84809 122.059 8.65402 121.333 8.632C121.692 8.63469 121.984 8.65031 122.126 8.67511C122.452 8.73229 123.12 8.89548 123.168 8.92989C123.188 8.94382 123.262 8.97417 123.335 8.99739C123.455 9.03612 123.93 9.26775 124.14 9.39009C124.385 9.5331 124.897 9.94468 125.154 10.2066C126.17 11.238 126.72 12.4234 126.973 14.1237C127.018 14.4281 127.018 15.9527 126.973 16.2439C126.888 16.7891 126.818 17.1546 126.775 17.2864C126.749 17.3641 126.7 17.5231 126.667 17.6397C126.528 18.1282 126.217 18.8143 125.93 19.2652C125.312 20.2405 124.351 21.0692 123.432 21.4213C123.287 21.4769 123.152 21.5335 123.133 21.5472C123.113 21.5608 123.002 21.5922 122.885 21.617C122.769 21.6417 122.649 21.6741 122.619 21.6889C122.5 21.7475 121.658 21.8404 121.225 21.8425C120.525 21.8461 120.084 21.7773 119.387 21.5559C118.915 21.406 118.492 21.2003 118.118 20.9398ZM118.094 20.9226C118.102 20.9284 118.11 20.9341 118.118 20.9398C118.11 20.9361 118.101 20.9301 118.094 20.9226ZM116.966 21.5045L116.969 19.7246L117.047 19.8166C117.09 19.8671 117.149 19.9451 117.178 19.9899C117.356 20.2619 117.791 20.7076 117.987 20.8169C118.018 20.8347 118.057 20.8704 118.073 20.8965C118.078 20.9061 118.086 20.9151 118.094 20.9226C117.754 20.6824 117.457 20.3964 117.202 20.0655L117.002 19.8057V20.6536C117.002 21.2745 116.997 21.4522 116.966 21.5045ZM116.964 21.5092C116.964 21.5077 116.965 21.5062 116.966 21.5045V21.5092H116.964ZM113.727 21.5092H116.964C116.958 21.5163 116.952 21.5205 116.946 21.5231C116.873 21.5511 113.809 21.5511 113.736 21.5231C113.735 21.5227 113.734 21.522 113.733 21.5208C113.731 21.5186 113.729 21.5149 113.727 21.5092ZM113.727 21.5092C113.723 21.4958 113.719 21.4718 113.715 21.4316V21.5092H113.727ZM39.0212 4.05808L39.7898 4.05253L38.8975 4.05737C38.4067 4.06002 37.9098 4.07412 37.7932 4.08868C36.8539 4.20604 35.7451 4.68857 35.0094 5.30012C34.5941 5.64533 34.0871 6.19634 33.8626 6.5466C33.8386 6.58396 33.779 6.67481 33.7301 6.74856C33.6811 6.82231 33.6411 6.8957 33.6411 6.91167C33.6411 6.92761 33.6124 6.97857 33.5773 7.02493C33.5422 7.07129 33.4696 7.21257 33.4158 7.3389C33.3621 7.46523 33.3037 7.6004 33.2862 7.63927C33.1472 7.94702 32.9837 8.59115 32.9361 9.01771C32.9157 9.20065 32.899 9.5577 32.899 9.81114V10.2719H30.8848V10.3083L32.9167 10.2896L32.9374 9.60049C32.9507 9.16234 32.9796 8.81491 33.0169 8.64638C33.1053 8.24725 33.216 7.86829 33.2911 7.70761C33.3281 7.6286 33.3584 7.54969 33.3584 7.53227C33.3584 7.48986 33.6199 6.97624 33.7521 6.75891C34.0809 6.21875 34.6969 5.55094 35.2054 5.18347C35.3655 5.06788 35.5122 4.96095 35.5316 4.94579C35.5511 4.93067 35.6147 4.89448 35.673 4.86536C35.7313 4.83621 35.7868 4.80441 35.7967 4.79469C35.8281 4.76327 36.3027 4.53786 36.5211 4.45061C36.9667 4.27272 37.4833 4.14823 38.0229 4.0889C38.1494 4.07501 38.5985 4.06116 39.0212 4.05808ZM39.7898 6.79842L39.4689 6.80898L39.1979 6.80913C38.612 6.80937 38.178 6.85252 38.113 6.9169C38.0946 6.93521 38.0529 6.95019 38.0204 6.95019C37.9293 6.95019 37.3628 7.25024 37.1985 7.3858C36.4285 8.02028 36.0931 8.80855 36.1225 9.91436L36.1324 10.2896L39.1184 10.308V10.2719H36.15V9.88294C36.15 8.9934 36.3196 8.42673 36.7472 7.88663C36.855 7.75058 36.9752 7.61323 37.0147 7.58135C37.0543 7.54951 37.1342 7.48149 37.1925 7.43018C37.3451 7.296 37.3515 7.29155 37.5458 7.18794C38.0763 6.90535 38.3286 6.84658 39.1272 6.82026L39.4689 6.80898L39.7898 6.80884V6.79842ZM32.9167 13.1166L30.8848 13.0978V13.1342H32.8987L32.9167 21.8449H36.1324L36.1677 13.1519L39.1184 13.1334V13.0989H37.6724C36.8773 13.0989 36.2013 13.1085 36.1705 13.1203C36.12 13.1397 36.1147 13.5571 36.1147 17.4845V21.8272H32.9346L32.9167 13.1166ZM77.4947 4.1859V10.916L77.1809 10.5851C77.0081 10.4031 76.7618 10.1751 76.6332 10.0785C76.5045 9.98178 76.3992 9.89036 76.3992 9.87527C76.3992 9.86983 76.3975 9.86471 76.3943 9.86043C76.5614 9.97093 76.8918 10.2535 77.1413 10.507L77.477 10.848L77.4947 4.1859ZM77.4947 4.1859V4.05253H77.495L77.4947 4.1859ZM76.3943 9.86043C76.39 9.85495 76.3837 9.85082 76.3763 9.84895C76.3819 9.85255 76.3879 9.85637 76.3943 9.86043ZM76.2823 9.80976C76.2851 9.81078 76.2883 9.81156 76.2914 9.81202C76.2936 9.81234 76.296 9.81251 76.2982 9.81251C76.3119 9.81251 76.3391 9.82559 76.3763 9.84895C76.3734 9.84824 76.3706 9.84785 76.3674 9.84785C76.3589 9.84785 76.3271 9.83333 76.2823 9.80976ZM76.2656 9.80092L76.2727 9.80474C76.2759 9.80647 76.2791 9.80813 76.2823 9.80976C76.2762 9.80774 76.2706 9.80467 76.2656 9.80092ZM76.2656 9.80092C76.2215 9.77721 76.1671 9.74636 76.1112 9.71276C75.8137 9.5337 75.349 9.31818 75.1094 9.24818C75.0317 9.22546 74.9363 9.19358 74.8974 9.1774C74.8585 9.16118 74.6677 9.11061 74.4733 9.06499C74.1521 8.98965 74.0394 8.98209 73.2365 8.98209C72.4337 8.98209 72.3209 8.98965 71.9997 9.06499C71.8054 9.11061 71.6145 9.16153 71.5757 9.17821C71.5368 9.19489 71.4333 9.22793 71.346 9.25168C71.2587 9.27542 71.1711 9.30588 71.1516 9.31938C71.1322 9.33288 71.0545 9.3638 70.9792 9.38811C70.7718 9.45497 70.2731 9.75297 69.8972 10.0346C69.0162 10.6948 68.2847 11.7101 67.9186 12.7808C67.8755 12.9072 67.8267 13.0423 67.8101 13.0812C67.7939 13.1201 67.7472 13.2791 67.7066 13.4346C67.3861 14.6681 67.3917 16.2875 67.7221 17.6221C67.7532 17.7484 67.7932 17.8836 67.8108 17.9224C67.8282 17.9613 67.861 18.0567 67.8836 18.1344C67.9059 18.2122 67.9469 18.3259 67.9745 18.3871C68.0017 18.4484 68.0243 18.5078 68.0243 18.5191C68.0243 18.5657 68.3625 19.2437 68.4716 19.4161C68.5367 19.5185 68.5897 19.6166 68.5897 19.634C68.5897 19.6515 68.6017 19.671 68.6165 19.6775C68.631 19.684 68.7307 19.8083 68.8374 19.9537C69.1003 20.312 69.3604 20.5867 69.7293 20.8951C70.0343 21.1501 70.3986 21.4032 70.4604 21.4032C70.4777 21.4032 70.4972 21.4151 70.5039 21.4297C70.5251 21.4774 71.1962 21.7919 71.2767 21.7919C71.2993 21.7919 71.3679 21.8138 71.429 21.8407C71.7944 22.0009 72.552 22.1106 73.2793 22.1087C73.9313 22.107 74.7712 21.9858 74.9942 21.8614C75.0278 21.8426 75.0755 21.8266 75.1002 21.8258C75.2373 21.8214 75.7882 21.5597 76.3243 21.2441C76.5194 21.1292 77.0233 20.6345 77.2604 20.3254L77.477 20.0427L77.4957 21.8279L80.728 21.8095L80.7457 4.05253H80.781L80.7634 21.8449L77.4957 21.8632L77.477 20.0802L77.3396 20.2735C77.2639 20.3797 77.1812 20.4906 77.1554 20.5197C76.2427 21.5597 74.8532 22.1422 73.28 22.1445C72.2686 22.1459 71.4054 21.9459 70.5862 21.5202C70.412 21.4297 70.0247 21.1793 69.9445 21.1053C69.9219 21.0845 69.8502 21.0284 69.7855 20.9806C69.4569 20.7388 68.8028 20.008 68.5649 19.6176C68.3854 19.3228 68.2017 18.9815 68.1183 18.7882C68.0639 18.6619 68.0048 18.5267 67.9872 18.4878C67.9416 18.388 67.7953 17.9585 67.7278 17.7281C67.4939 16.9274 67.3977 15.8974 67.4628 14.8871C67.5543 13.4642 67.99 12.1959 68.7448 11.1553C69.3703 10.2928 70.3728 9.54374 71.3128 9.2362C71.8029 9.07591 71.9637 9.03785 72.3814 8.98343C73.1298 8.8859 74.156 8.93413 74.6995 9.09241C74.9864 9.17602 75.4218 9.32564 75.4628 9.35475C75.4822 9.36854 75.5377 9.39182 75.5865 9.40652C75.6964 9.43974 76.236 9.74612 76.2519 9.78439C76.2547 9.79057 76.2593 9.79626 76.2656 9.80092ZM66.3995 21.2931L66.3871 17.7016C66.3737 13.7248 66.3705 13.5606 66.3002 13.1519C66.2182 12.6775 66.127 12.2689 66.079 12.1624C66.0616 12.1236 66.0249 12.0282 65.9973 11.9504C65.9214 11.7363 65.8206 11.4932 65.7994 11.4734C65.7888 11.4636 65.7327 11.3632 65.6743 11.2502C65.4376 10.7911 64.9337 10.2273 64.445 9.87446C64.1061 9.62957 64.0718 9.60802 63.9163 9.54091C63.8435 9.5095 63.7838 9.47027 63.7838 9.45377C63.7838 9.4373 63.764 9.42366 63.7396 9.42349C63.7152 9.42331 63.6159 9.38405 63.5188 9.33624C63.4216 9.28843 63.3205 9.24881 63.2944 9.24821C63.2682 9.24761 63.1965 9.22489 63.1354 9.19775C63.0742 9.17061 62.8728 9.11294 62.6883 9.06962C62.4042 9.0029 62.2336 8.98937 61.5752 8.98152C61.1476 8.9764 60.7342 8.97877 60.6565 8.98675C60.49 9.00389 59.9101 9.13503 59.8084 9.17856C59.7695 9.19521 59.6659 9.22694 59.5787 9.2491C59.4914 9.27125 59.4037 9.30207 59.3843 9.31758C59.3649 9.33313 59.2772 9.36659 59.19 9.39193C59.1027 9.4173 59.0228 9.44677 59.0133 9.45741C59.0034 9.46808 58.8921 9.53084 58.7659 9.59685C58.3613 9.80834 58.1553 9.96136 57.7994 10.3149C57.6083 10.5051 57.445 10.6606 57.4372 10.6606C57.4294 10.6606 57.4231 10.3426 57.4231 9.95386V9.24712H54.2074V9.21107L57.4408 9.22945L57.4598 10.6188L57.7683 10.31C58.0486 10.0292 58.3249 9.80584 58.5535 9.67502C59.1521 9.33263 59.9087 9.07283 60.5695 8.98304C61.4229 8.86703 62.4399 8.94403 63.1477 9.17828C63.5308 9.30507 64.0517 9.5478 64.1753 9.65717C64.2061 9.68431 64.2439 9.7065 64.2598 9.7065C64.3036 9.7065 64.7683 10.0882 64.9687 10.2884C65.6676 10.9872 66.045 11.7434 66.3009 12.9575C66.3786 13.3269 66.379 13.3482 66.3899 17.5956L66.3995 21.2931ZM66.4009 21.8272L66.3995 21.2931L66.4012 21.8272H66.4009ZM66.4009 21.8272H63.2184L63.2166 18.3553C63.2159 16.4458 63.2014 14.7324 63.1845 14.5477C63.1449 14.1114 63.0537 13.6251 62.988 13.499C62.9594 13.4442 62.9361 13.3794 62.9361 13.355C62.9357 13.3307 62.8682 13.1798 62.7855 13.0197C62.5657 12.5938 62.1095 12.1417 61.6989 11.9429C61.5335 11.863 61.3031 11.7787 61.1865 11.7557C61.0699 11.7327 60.9109 11.7003 60.8331 11.6835C60.4261 11.596 59.5218 11.693 59.1193 11.8675C58.3624 12.1955 57.886 12.7319 57.6026 13.5759C57.5535 13.7224 57.5199 13.8243 57.4962 14.0222L57.4814 14.0707L57.481 14.1784C57.4439 14.6573 57.4386 15.6073 57.4259 18.0108L57.4054 21.8095H54.2251L54.2074 9.39564V9.24712H54.207L54.2074 9.39564V21.8625L55.7887 21.862C56.6584 21.8617 57.3895 21.8492 57.4128 21.8342C57.4461 21.8133 57.4588 20.9189 57.4687 17.9388L57.481 14.1784C57.4856 14.1199 57.4906 14.0685 57.4962 14.0222L57.5726 13.7703C57.7284 13.2553 57.8394 13.0232 58.0814 12.7059C58.6496 11.9608 59.4426 11.6352 60.5377 11.6973C61.131 11.7309 61.5431 11.8513 61.9357 12.1057C62.2661 12.3199 62.6262 12.7361 62.7947 13.0989C62.7993 13.1092 62.8071 13.1258 62.8166 13.1459C62.823 13.1594 62.8304 13.1745 62.8378 13.1904C62.8509 13.218 62.865 13.2478 62.8785 13.2758C62.911 13.3439 62.9622 13.4871 62.9922 13.5938C63.0219 13.7006 63.0643 13.8436 63.0862 13.9116C63.1142 13.9987 63.1294 15.1797 63.1382 17.9029C63.147 20.6048 63.1622 21.7844 63.1887 21.8165C63.2191 21.8531 63.5534 21.8625 64.8139 21.8625H66.4009V21.8272ZM90.7815 9.3556L90.7801 9.24712H87.5658V21.8279L90.7638 21.8095L90.7995 14L90.879 13.7745C90.9225 13.6505 90.9582 13.5349 90.9582 13.5176C90.9582 13.4242 91.2791 12.8375 91.4388 12.639C91.7278 12.2799 91.9374 12.113 92.3374 11.9237C92.5802 11.8089 92.7123 11.7715 93.1844 11.6838C93.6922 11.5895 94.5089 11.6983 94.9842 11.9236C95.3644 12.1039 95.5708 12.2653 95.8051 12.567C95.9192 12.7138 96.0259 12.8504 96.0418 12.8705C96.0931 12.9354 96.2588 13.28 96.2591 13.3226C96.2591 13.3453 96.2825 13.4088 96.3111 13.4636C96.3683 13.5729 96.4588 13.9769 96.5072 14.3357C96.5238 14.462 96.5387 16.1993 96.5397 18.1963L96.5415 21.8272H99.7218V17.8076C99.7222 13.9105 99.7201 13.7723 99.648 13.2756C99.5734 12.7598 99.4607 12.2772 99.3388 11.9504C99.2437 11.6951 99.16 11.4989 99.12 11.438C99.101 11.4089 99.0688 11.346 99.0487 11.2983C99.0282 11.2506 98.9564 11.1353 98.8896 11.042C98.8225 10.9488 98.7677 10.8619 98.7677 10.849C98.7677 10.8176 98.725 10.7705 98.3384 10.3769C97.9621 9.99312 97.8663 9.91008 97.6193 9.75124C97.5221 9.6888 97.4267 9.62533 97.4072 9.61024C97.3454 9.56218 96.9023 9.35313 96.8627 9.35313C96.8415 9.35313 96.8242 9.33899 96.8242 9.32171C96.8242 9.30447 96.7645 9.27927 96.6917 9.26578C96.6189 9.25231 96.5115 9.22069 96.4531 9.19552C96.3948 9.17036 96.204 9.114 96.0291 9.07025C95.7549 9.00173 95.6015 8.98944 94.916 8.98106C94.4785 8.97576 94.065 8.97834 93.9972 8.98682C93.7841 9.01336 93.2071 9.14602 93.0961 9.1939C93.0378 9.21906 92.9343 9.25111 92.8664 9.26514C92.7986 9.27917 92.7268 9.3026 92.7074 9.31726C92.688 9.33193 92.612 9.36324 92.5388 9.38681C92.2512 9.47946 91.4529 9.95143 91.4529 10.0288C91.4529 10.0459 91.4356 10.0599 91.4144 10.0599C91.3769 10.0599 91.1144 10.3156 90.9052 10.5563L90.7992 10.6783L90.7988 10.6485L90.8903 10.533C91.1575 10.1951 91.7134 9.7546 92.1515 9.53321C92.6494 9.28168 93.2293 9.09803 93.8382 8.99905C94.5396 8.88502 95.6478 8.92795 96.2199 9.09128C97.5122 9.46052 98.5349 10.265 99.1034 11.36C99.4759 12.0765 99.6635 12.8226 99.7233 13.8233C99.7448 14.1832 99.7554 15.9117 99.7494 18.1344L99.7395 21.8449H96.5238L96.503 18.0461C96.4885 15.3779 96.4697 14.1842 96.4408 14.0353C96.2485 13.0451 95.6874 12.2474 94.969 11.9427C94.5972 11.785 94.4771 11.7544 94.0696 11.7137C93.0682 11.6136 92.2452 11.8531 91.695 12.4046C91.4561 12.6444 91.3858 12.7244 91.3292 12.8211C91.3098 12.8544 91.2511 12.9546 91.1988 13.0437C91.1469 13.1328 91.0932 13.2414 91.0801 13.2848C91.067 13.3283 91.0349 13.4116 91.0091 13.4699C90.9829 13.5282 90.926 13.7032 90.8826 13.8586L90.8034 14.1413L90.7783 21.8632L87.5481 21.8449L87.5305 9.21178H90.7815V9.3556ZM90.7815 9.3556L90.7988 10.6485L90.7815 10.6703V9.3556ZM108.042 27.5911C108.126 27.5816 108.195 27.5692 108.273 27.5531C108.719 27.4612 109.053 27.3802 109.139 27.3425C109.178 27.3256 109.313 27.2762 109.44 27.2326C109.8 27.1084 110.538 26.7394 110.679 26.6125C110.71 26.5849 110.746 26.5624 110.759 26.5624C110.772 26.5624 110.812 26.5346 110.849 26.5006C110.885 26.4665 110.968 26.399 111.032 26.3504C111.309 26.1409 111.68 25.7399 111.882 25.4316C112.327 24.7529 112.496 24.0357 112.439 23.064C112.366 21.8035 111.916 20.9019 111.061 20.2971C110.816 20.1232 110.184 19.813 110.076 19.813C110.052 19.813 109.983 19.7902 109.922 19.7624C109.861 19.7346 109.691 19.6855 109.546 19.6533C108.939 19.5196 108.551 19.4942 106.613 19.4611C105.553 19.443 104.623 19.4143 104.545 19.3973C104.35 19.3545 104.062 19.2452 103.995 19.1886C103.964 19.1627 103.925 19.1416 103.907 19.1416C103.889 19.1416 103.809 19.0694 103.73 18.9812C103.629 18.87 103.567 18.7564 103.526 18.6107C103.455 18.354 103.454 18.2878 103.521 18.0689C103.608 17.7823 103.717 17.6377 103.952 17.4987C104.068 17.4301 104.094 17.4353 104.475 17.6042C104.649 17.6816 105.058 17.7928 105.34 17.8398C105.742 17.9067 106.9 17.8962 107.39 17.8212C107.613 17.7871 107.812 17.7442 107.83 17.7259C107.848 17.7077 107.892 17.6927 107.927 17.6927C108.089 17.6927 108.898 17.3582 109.298 17.1257C109.635 16.9302 110.298 16.3443 110.521 16.0455C110.577 15.97 110.631 15.9002 110.641 15.8905C110.753 15.7803 111.135 15.0644 111.135 14.9629C111.135 14.9289 111.15 14.9011 111.166 14.9011C111.183 14.9011 111.217 14.8017 111.242 14.6802C111.267 14.5588 111.302 14.432 111.318 14.3986C111.335 14.3651 111.366 14.122 111.387 13.8585C111.428 13.3367 111.393 12.8211 111.293 12.4867C111.144 11.9886 111.1 11.8365 111.08 11.7472L111.057 11.6501H112.761V9.24712H110.496C108.665 9.24712 108.21 9.23789 108.12 9.19909C108.059 9.17266 107.842 9.11418 107.637 9.06909C107.313 8.99735 107.159 8.98622 106.401 8.97983C105.924 8.97576 105.471 8.97898 105.393 8.98689C105.201 9.00654 104.562 9.13831 104.475 9.17637C104.436 9.19333 104.325 9.2309 104.227 9.2598C103.993 9.32963 103.702 9.43663 103.68 9.46116C103.67 9.47197 103.606 9.50285 103.538 9.52982C103.47 9.55678 103.407 9.5877 103.397 9.59855C103.387 9.6094 103.332 9.64208 103.273 9.67116C103.215 9.70025 103.159 9.73209 103.15 9.74188C103.14 9.7517 103.06 9.8069 102.973 9.86453C102.604 10.1079 102.22 10.4654 101.977 10.7916C101.893 10.9042 101.817 11.0043 101.807 11.014C101.746 11.0741 101.479 11.6162 101.389 11.8621C101.038 12.8212 101.051 14.0201 101.423 14.9541C101.501 15.1494 101.638 15.439 101.665 15.4665C101.675 15.4762 101.707 15.5319 101.736 15.5902C101.765 15.6485 101.809 15.7089 101.833 15.7244C101.858 15.74 101.878 15.7718 101.878 15.7951C101.878 15.8184 101.966 15.9401 102.072 16.0656C102.179 16.191 102.266 16.3046 102.266 16.3181C102.266 16.3315 102.186 16.3942 102.087 16.4573C101.876 16.5927 101.74 16.7041 101.544 16.8998C101.394 17.0496 101.206 17.2664 101.206 17.2893C101.206 17.2966 101.153 17.3864 101.088 17.4889C101.023 17.5913 100.925 17.8023 100.871 17.9578C100.786 18.2002 100.77 18.3109 100.755 18.7352C100.739 19.2239 100.785 19.7246 100.854 19.7934C100.873 19.8119 100.888 19.8498 100.888 19.8775C100.888 19.963 101.097 20.3443 101.259 20.5555C101.345 20.6659 101.494 20.8176 101.593 20.8926C101.691 20.9676 101.771 21.0416 101.771 21.057C101.771 21.0725 101.791 21.0856 101.816 21.0863C101.858 21.0874 102.019 21.2048 102.019 21.235C102.019 21.2432 101.936 21.3035 101.835 21.369C101.734 21.4346 101.625 21.5128 101.593 21.5428C101.562 21.5729 101.458 21.6693 101.362 21.7572C100.929 22.1547 100.637 22.7094 100.534 23.329C100.496 23.5541 100.496 24.2241 100.534 24.4775C100.635 25.157 100.933 25.7549 101.405 26.2223C101.67 26.4843 102.171 26.8345 102.478 26.9711L102.553 27.0047C102.609 27.0295 102.669 27.0561 102.708 27.0736C103.168 27.2797 103.704 27.4238 104.492 27.5533C104.758 27.5971 104.967 27.6129 105.619 27.6185C104.572 27.6221 104.461 27.5971 103.811 27.45L103.768 27.4403C103.232 27.3193 102.872 27.1911 102.41 26.9575C101.106 26.2975 100.464 25.2806 100.464 23.8768C100.464 23.6499 100.555 23.0077 100.601 22.905C100.619 22.8661 100.66 22.7597 100.692 22.6684C100.83 22.279 101.259 21.7598 101.727 21.4131L101.987 21.2209L101.817 21.1097C101.61 20.9736 101.172 20.5358 101.101 20.394C101.073 20.3368 101.033 20.2662 101.012 20.237C100.952 20.1553 100.828 19.8203 100.762 19.5656C100.671 19.2134 100.678 18.6017 100.778 18.2051C100.955 17.4991 101.382 16.8954 101.977 16.5076C102.095 16.4306 102.199 16.3507 102.207 16.33C102.216 16.3092 102.145 16.1908 102.048 16.0666C101.586 15.4723 101.341 14.9553 101.182 14.2437C101.096 13.8613 101.096 12.9148 101.182 12.5158C101.258 12.1597 101.414 11.6567 101.457 11.6305C101.474 11.6195 101.489 11.5864 101.489 11.5569C101.489 11.4751 101.762 11.0241 101.967 10.7666C102.532 10.058 103.31 9.52667 104.21 9.23514C104.697 9.07732 104.896 9.03032 105.287 8.9811C105.551 8.94792 105.914 8.93693 106.418 8.94686C107.17 8.96166 107.585 9.01124 107.955 9.13057C108.131 9.18704 108.378 9.19496 110.482 9.21132L112.814 9.22945V11.6677L111.072 11.6866L111.091 11.7655C111.102 11.8089 111.122 11.8603 111.135 11.8797C111.149 11.8992 111.18 11.9946 111.205 12.0918C111.229 12.1889 111.271 12.3321 111.298 12.4098C111.325 12.4875 111.373 12.7335 111.404 12.9563C111.462 13.366 111.457 13.629 111.379 14.1767C111.344 14.4226 111.187 14.9926 111.136 15.0601C111.121 15.0795 111.098 15.1323 111.084 15.1772C110.995 15.4663 110.55 16.0931 110.157 16.4823C109.945 16.6921 109.437 17.092 109.382 17.092C109.368 17.092 109.332 17.1145 109.301 17.1421C109.231 17.2046 108.724 17.4584 108.517 17.5347C107.188 18.0227 105.65 18.0677 104.545 17.6507C104.044 17.4615 104.023 17.4581 103.897 17.5478C103.836 17.5912 103.734 17.7012 103.671 17.7922C103.565 17.9448 103.555 17.9832 103.544 18.2829C103.533 18.5676 103.542 18.6286 103.614 18.7735C103.74 19.0245 103.992 19.2066 104.383 19.3269C104.601 19.3939 104.746 19.4003 106.577 19.4232C108.677 19.4495 108.828 19.4612 109.638 19.6583C111.131 20.0217 112.016 20.8598 112.36 22.2344C112.449 22.5933 112.457 22.6765 112.457 23.3467C112.458 23.7809 112.443 24.1278 112.419 24.2125C112.415 24.2264 112.41 24.2428 112.405 24.2611C112.399 24.2802 112.394 24.3015 112.387 24.3239C112.376 24.3642 112.364 24.4083 112.352 24.4516C112.342 24.4889 112.332 24.5256 112.323 24.5586C112.274 24.7345 112.037 25.2731 111.984 25.3256C111.974 25.3353 111.906 25.4355 111.832 25.5483C111.758 25.6611 111.575 25.8771 111.426 26.0282C111.164 26.2927 110.646 26.7037 110.575 26.7037C110.556 26.7037 110.536 26.7182 110.529 26.7358C110.51 26.7887 109.594 27.2336 109.503 27.234C109.478 27.2342 109.412 27.2579 109.356 27.2869C109.253 27.341 109.068 27.3973 108.574 27.5257C108.438 27.5609 108.336 27.5795 108.042 27.5911ZM108.042 27.5911C107.799 27.6185 107.438 27.6219 106.418 27.6212C106.093 27.621 105.832 27.6203 105.619 27.6185C105.833 27.6177 106.086 27.6158 106.392 27.6135L106.489 27.6127C107.309 27.6065 107.762 27.602 108.042 27.5911ZM131.101 16.5268V16.4913H135.763C140.173 16.4913 140.427 16.4879 140.444 16.4294C140.499 16.2427 140.544 15.4295 140.523 14.9718C140.494 14.3076 140.353 13.378 140.255 13.2007C140.238 13.1693 140.205 13.0739 140.183 12.9887C140.161 12.9035 140.114 12.7702 140.079 12.6925L139.94 12.3837C139.899 12.2916 139.865 12.2001 139.865 12.1805C139.865 12.1609 139.851 12.1448 139.834 12.1448C139.816 12.1448 139.793 12.1086 139.782 12.0643C139.76 11.9774 139.368 11.3768 139.183 11.1476C138.964 10.8751 138.466 10.4002 138.151 10.1637C137.865 9.94839 137.246 9.56515 137.185 9.56515C137.172 9.56515 137.105 9.53568 137.038 9.49967C136.97 9.46366 136.851 9.41387 136.773 9.38907C136.695 9.36422 136.616 9.33217 136.596 9.31783C136.577 9.30345 136.474 9.27125 136.367 9.24627C136.26 9.22129 136.148 9.18916 136.119 9.17489C136.09 9.16058 135.899 9.11259 135.695 9.06824C135.369 8.99735 135.211 8.9865 134.388 8.97901C133.873 8.97431 133.348 8.98368 133.222 8.99983C132.822 9.05096 131.988 9.25387 131.838 9.33673C131.787 9.36518 131.72 9.38847 131.691 9.38847C131.625 9.38847 130.762 9.82446 130.679 9.89941C130.646 9.92934 130.607 9.95386 130.593 9.95386C130.526 9.95386 129.991 10.3899 129.686 10.6926C129.248 11.1301 129.001 11.4477 128.709 11.9504C128.619 12.1065 128.351 12.6627 128.327 12.7455C128.313 12.7941 128.289 12.8498 128.274 12.8692C128.258 12.8886 128.228 12.9761 128.206 13.0635C128.184 13.151 128.152 13.2544 128.135 13.2932C127.998 13.6154 127.837 14.8032 127.835 15.5195C127.832 16.3833 128.048 17.6362 128.294 18.1751C128.322 18.2364 128.345 18.2988 128.345 18.3139C128.345 18.4026 128.869 19.3867 128.97 19.4886C128.996 19.5143 129.016 19.5478 129.016 19.563C129.016 19.5782 129.052 19.6306 129.096 19.6795C129.14 19.7284 129.207 19.8141 129.246 19.8699C129.495 20.2273 130.277 20.922 130.768 21.2212C130.986 21.3541 131.549 21.6344 131.667 21.6688C131.716 21.6829 131.771 21.7066 131.79 21.7214C131.81 21.7362 131.882 21.7598 131.949 21.7738C132.017 21.7879 132.121 21.8194 132.179 21.8439C132.34 21.9113 132.985 22.0373 133.363 22.0751C133.805 22.1193 134.627 22.1187 135.112 22.074C135.484 22.0397 136.093 21.9255 136.243 21.862C136.282 21.8456 136.377 21.8137 136.455 21.7913C136.533 21.7688 136.644 21.7292 136.702 21.7032C136.761 21.6772 136.852 21.6451 136.906 21.6317C136.959 21.6184 137.003 21.5965 137.003 21.5831C137.003 21.5697 137.062 21.5374 137.135 21.5113C137.208 21.4852 137.276 21.4542 137.285 21.4423C137.295 21.4305 137.359 21.3923 137.427 21.3575C137.996 21.0661 138.82 20.3673 139.141 19.9044C139.179 19.8482 139.239 19.7728 139.273 19.7369C139.307 19.701 139.335 19.6577 139.335 19.6406C139.335 19.6236 139.358 19.5909 139.385 19.568C139.486 19.4848 139.807 18.9148 139.974 18.5232C140.032 18.3871 140.093 18.2514 140.109 18.2216C140.125 18.1918 140.15 18.1163 140.164 18.0538L140.189 17.9401H138.459C136.842 17.9401 136.727 17.9442 136.707 18.0019C136.59 18.3494 136.018 18.9598 135.625 19.1559C135.388 19.2741 135.043 19.3916 134.813 19.4324C134.518 19.4847 133.836 19.4853 133.545 19.4333C133.1 19.3538 132.627 19.1517 132.286 18.8942C132.206 18.8344 131.818 18.4456 131.737 18.3445C131.566 18.1301 131.243 17.4541 131.243 17.3087C131.243 17.275 131.229 17.2324 131.211 17.2139C131.175 17.1748 131.101 16.7666 131.101 16.6032V16.545L131.121 16.6593C131.179 16.9939 131.285 17.4309 131.315 17.4613C131.334 17.4797 131.349 17.5182 131.349 17.5468C131.349 17.5925 131.491 17.8954 131.608 18.0999C131.752 18.3506 132.079 18.7086 132.338 18.8988C132.541 19.0475 132.933 19.2467 133.128 19.3C133.228 19.3273 133.374 19.3695 133.451 19.3937C133.539 19.421 133.812 19.4379 134.176 19.4384C134.848 19.4393 135.07 19.3912 135.589 19.1322C135.964 18.9448 136.347 18.576 136.579 18.179L136.738 17.9068L140.226 17.9048L140.202 18.0019C140.094 18.4362 139.69 19.2062 139.27 19.7776C139.057 20.0691 138.353 20.8024 138.287 20.8024C138.264 20.8024 138.24 20.8169 138.234 20.8346C138.222 20.8672 137.794 21.1911 137.763 21.1911C137.754 21.1911 137.662 21.2442 137.56 21.3092C136.962 21.6879 136.195 21.9519 135.331 22.0754C134.079 22.2545 132.534 22.0854 131.574 21.6643C130.47 21.1797 129.629 20.4936 128.959 19.5303C128.665 19.108 128.342 18.4395 128.174 17.9048C128.014 17.3973 127.982 17.2736 127.933 16.9683C127.82 16.2571 127.809 16.1 127.827 15.3251C127.844 14.5286 127.907 14.0484 128.073 13.4169C128.236 12.8018 128.513 12.1817 128.871 11.6324L128.885 11.6114L128.885 11.6105C128.914 11.5664 128.933 11.537 128.954 11.5081C128.994 11.4504 129.037 11.3949 129.166 11.2292L129.196 11.1907C130.142 9.98072 131.6 9.17983 133.215 8.98361C133.739 8.91993 134.705 8.91926 135.24 8.98223C135.805 9.0487 136.247 9.1615 136.879 9.39985C137.054 9.46582 137.497 9.69343 137.709 9.82679C138.027 10.0257 138.24 10.1783 138.24 10.2071C138.24 10.2233 138.257 10.2366 138.278 10.2366C138.382 10.2366 139.057 10.9282 139.347 11.332C139.437 11.4583 139.528 11.5809 139.547 11.6044C139.566 11.6279 139.582 11.655 139.582 11.6646C139.582 11.6743 139.62 11.7377 139.666 11.8054C139.803 12.0075 140.125 12.6898 140.168 12.8692C140.181 12.9275 140.205 12.9911 140.219 13.0105C140.264 13.0693 140.356 13.442 140.454 13.9646C140.539 14.4127 140.548 14.5361 140.546 15.2721C140.544 15.8173 140.528 16.1547 140.496 16.2969L140.448 16.5089L131.101 16.5268ZM131.101 16.5268V16.545L131.098 16.5268H131.101ZM144.53 16.4913H153.855L153.884 16.3588C153.926 16.1598 153.912 14.2809 153.867 14.0353C153.654 12.8818 153.237 11.946 152.569 11.12C152.237 10.71 151.76 10.2738 151.35 10.0051C151.262 9.94789 151.183 9.89153 151.173 9.8799C151.136 9.83584 150.274 9.40741 150.148 9.37037C150.099 9.35613 150.044 9.3326 150.025 9.31811C150.005 9.30359 149.902 9.27164 149.795 9.24708C149.688 9.22256 149.585 9.19302 149.565 9.1815C149.546 9.16994 149.355 9.12284 149.141 9.07679C148.798 9.0029 148.642 8.99177 147.816 8.98212C147.301 8.97612 146.784 8.98294 146.667 8.99721C146.385 9.03188 145.833 9.14012 145.766 9.17386C145.737 9.1887 145.626 9.22129 145.519 9.24627C145.412 9.27125 145.309 9.30323 145.289 9.3173C145.27 9.33136 145.198 9.36158 145.13 9.38444C144.943 9.44723 144.822 9.50091 144.586 9.62576C144.467 9.68827 144.315 9.76778 144.247 9.80244C144.179 9.83714 144.115 9.87361 144.106 9.88351C144.096 9.89344 144.016 9.94779 143.929 10.0043C143.504 10.2791 142.886 10.8645 142.538 11.3225C142.311 11.6207 141.983 12.1802 141.846 12.5003C141.784 12.6449 141.72 12.795 141.702 12.8339C141.685 12.8727 141.651 12.9761 141.627 13.0635C141.604 13.151 141.574 13.2385 141.561 13.2579C141.547 13.2773 141.517 13.3966 141.493 13.5229C141.469 13.6493 141.435 13.7844 141.418 13.8233C141.401 13.8622 141.352 14.1802 141.311 14.53C141.248 15.0523 141.238 15.2704 141.256 15.7492C141.283 16.4544 141.435 17.4524 141.561 17.7457C141.578 17.7846 141.61 17.88 141.632 17.9578C141.675 18.1081 141.687 18.1405 141.81 18.4171C142.023 18.8985 142.122 19.084 142.359 19.4419C142.652 19.8842 143.038 20.3349 143.347 20.5947C143.463 20.6923 143.601 20.8088 143.654 20.8537C143.745 20.9317 144.08 21.1623 144.229 21.2506C144.383 21.3413 145.006 21.6505 145.035 21.6505C145.053 21.6505 145.117 21.673 145.178 21.7005C145.239 21.7279 145.353 21.7688 145.431 21.7913C145.508 21.8137 145.604 21.8459 145.643 21.8628C145.714 21.8936 146.161 21.989 146.491 22.0435C146.588 22.0596 146.97 22.0833 147.339 22.0963C148.066 22.1217 148.8 22.0756 149.194 21.9796C149.594 21.8821 150.02 21.7526 150.168 21.6827C150.247 21.6456 150.339 21.6152 150.372 21.6152C150.383 21.6152 150.394 21.6135 150.403 21.6108C150.352 21.6347 150.302 21.6573 150.254 21.678C149.283 22.0988 147.865 22.2519 146.578 22.0748C146.073 22.0053 145.914 21.97 145.431 21.8199C144.254 21.4543 143.129 20.618 142.412 19.5753C142.127 19.1603 141.975 18.8754 141.722 18.2758C141.527 17.8139 141.379 17.2184 141.277 16.4913C141.236 16.1973 141.236 14.8538 141.278 14.53C141.379 13.7329 141.521 13.2011 141.82 12.4981C141.898 12.3135 141.992 12.1245 142.027 12.0782C142.062 12.0318 142.091 11.98 142.091 11.963C142.091 11.9459 142.147 11.8529 142.215 11.7561C142.283 11.6593 142.339 11.5719 142.339 11.5618C142.339 11.5316 142.521 11.29 142.71 11.0706C143.028 10.6997 143.309 10.4337 143.664 10.1671C143.742 10.1086 143.821 10.0486 143.84 10.0338C143.873 10.0087 144.065 9.88591 144.229 9.78488C144.843 9.40705 145.829 9.07782 146.632 8.98318C147.443 8.8876 148.748 8.93891 149.318 9.08877C150.29 9.34447 150.914 9.63993 151.685 10.2111C151.832 10.3193 152.512 11.0013 152.641 11.1682C152.698 11.2433 152.779 11.3466 152.82 11.3979C152.932 11.54 153.285 12.153 153.386 12.3825C153.435 12.4947 153.49 12.6183 153.507 12.6572C153.653 12.9826 153.827 13.6467 153.915 14.212C153.956 14.4788 153.976 14.8113 153.975 15.2721C153.975 15.858 153.958 16.0537 153.874 16.4471L153.857 16.5266H144.53V16.4913ZM144.53 16.5855L144.521 16.5266H144.53L144.53 16.5855ZM150.421 21.6023C150.427 21.5978 150.431 21.5926 150.431 21.5869C150.431 21.5714 150.491 21.5374 150.563 21.5113C150.636 21.4852 150.704 21.4528 150.714 21.4393C150.723 21.4258 150.84 21.354 150.974 21.2799C151.693 20.8806 152.394 20.2034 152.914 19.4066C153.076 19.158 153.468 18.4124 153.471 18.3465C153.472 18.327 153.503 18.2475 153.541 18.1698C153.578 18.092 153.609 18.0086 153.61 17.9843C153.611 17.9495 153.243 17.9401 151.887 17.9401H150.163L150.058 18.1343C150.001 18.2412 149.943 18.3286 149.93 18.3287C149.916 18.3287 149.896 18.3604 149.883 18.3991C149.819 18.6018 149.095 19.1794 148.799 19.265C148.754 19.2779 148.667 19.3109 148.607 19.3382C148.317 19.4688 147.447 19.5172 146.952 19.4303C146.419 19.3368 145.898 19.0836 145.507 18.7276C145.177 18.4267 144.745 17.7361 144.684 17.41C144.671 17.342 144.648 17.2699 144.633 17.2498C144.597 17.2035 144.53 16.7985 144.53 16.6238V16.5855L144.545 16.6945C144.592 17.0313 144.718 17.4699 144.851 17.7578C145.229 18.5752 145.824 19.0869 146.693 19.3417C146.989 19.4288 147.075 19.4381 147.586 19.4385C148.07 19.4388 148.192 19.4272 148.434 19.358C148.743 19.2697 149.187 19.066 149.324 18.9499C149.643 18.6794 150.038 18.2118 150.043 18.0991C150.044 18.0797 150.074 18.028 150.111 17.9843L150.177 17.9048H153.643L153.588 18.0903C153.559 18.1923 153.52 18.2909 153.502 18.3094C153.484 18.3278 153.47 18.3676 153.469 18.3977C153.467 18.5435 153.019 19.3275 152.66 19.8129C152.635 19.8475 152.607 19.8844 152.584 19.916C152.562 19.9466 152.543 19.9721 152.533 19.9853C152.46 20.0873 151.749 20.7879 151.651 20.8554C151.595 20.8943 151.505 20.9619 151.453 21.0056C151.4 21.0493 151.346 21.0851 151.333 21.0851C151.32 21.0851 151.259 21.1233 151.197 21.1699C151.058 21.2745 150.724 21.4595 150.421 21.6023ZM150.421 21.6023L150.403 21.6108C150.407 21.6097 150.41 21.6084 150.413 21.607C150.416 21.6056 150.419 21.604 150.421 21.6023ZM40.3735 16.7751C40.3792 17.0642 40.3859 17.2392 40.394 17.3022C40.4937 18.0791 40.5697 18.4582 40.7068 18.8589C40.7817 19.0788 40.9923 19.5603 41.0619 19.6716C41.0799 19.7008 41.146 19.8121 41.2086 19.919C41.2711 20.0259 41.3312 20.1213 41.3425 20.131C41.3534 20.1407 41.4284 20.237 41.5086 20.345C41.8824 20.8481 42.6206 21.4352 43.1772 21.6722C43.9034 21.9817 44.5801 22.1106 45.4688 22.1091C46.0689 22.1081 46.823 21.9959 47.1223 21.863C47.1611 21.8457 47.2325 21.8208 47.2813 21.8076C47.3746 21.782 47.5838 21.6934 47.8467 21.5675C47.988 21.5 48.0552 21.4603 48.3198 21.2877C48.5813 21.1172 48.9987 20.7321 49.1807 20.4937C49.2287 20.4306 49.2821 20.3878 49.2994 20.3985C49.3167 20.4091 49.3308 20.735 49.3308 21.1225V21.8272H52.5465V21.8632L49.3132 21.8449L49.2941 20.413L49.1358 20.5913C48.8566 20.9055 48.605 21.1302 48.3237 21.3159C48.123 21.4487 48.0665 21.4823 47.8997 21.5685C47.8608 21.5886 47.7806 21.6301 47.7216 21.6608C47.5915 21.728 47.3915 21.8022 47.0201 21.9206C46.0363 22.2344 44.7094 22.2173 43.6592 21.8772C42.7899 21.5957 42.0153 21.0443 41.4481 20.3032C41.199 19.9775 41.1439 19.887 40.9453 19.4773C40.7248 19.0225 40.594 18.6355 40.4562 18.0284L40.376 17.6751L40.3735 16.7751ZM40.3552 10.097L40.3735 16.7751C40.3612 16.1313 40.3552 14.9218 40.3552 13.1235V10.097ZM40.3552 9.24712V10.097L40.3527 9.21107L43.5885 9.22945L43.627 16.9281C43.5726 16.4284 43.5709 15.4793 43.5709 12.9031V9.24712H40.3552ZM43.6437 17.0578L43.6274 17.0037L43.627 16.9281C43.632 16.975 43.6376 17.0178 43.6437 17.0578ZM49.2464 17.0005C49.2393 17.0492 49.2323 17.0975 49.2262 17.1419C49.2057 17.2956 49.1747 17.4388 49.1577 17.4599C49.1407 17.4811 49.1153 17.554 49.1008 17.6221C49.0686 17.774 48.8389 18.2145 48.676 18.4364C48.5736 18.5757 48.3856 18.7618 48.1661 18.9406C48.0326 19.0497 47.6198 19.2285 47.3166 19.3089C46.8381 19.4357 46.1053 19.4406 45.624 19.3201C45.0412 19.1743 44.5797 18.8823 44.2599 18.4564C44.2211 18.4047 44.1691 18.3399 44.1447 18.3125C44.0709 18.2295 43.8627 17.7967 43.7702 17.5337C43.7133 17.3722 43.6726 17.2493 43.6437 17.0578L43.7186 17.3059C43.9938 18.2189 44.4564 18.8099 45.1444 19.1277C45.6445 19.3587 46.395 19.4432 47.0226 19.3391C47.8325 19.2046 48.3382 18.8934 48.7474 18.2774C48.9623 17.9542 49.0467 17.7535 49.18 17.251L49.2464 17.0005ZM49.2743 16.8236L49.2739 16.8976L49.2464 17.0005C49.2556 16.9395 49.2651 16.8781 49.2743 16.8236ZM49.2743 16.8236C49.2828 16.7709 49.2909 16.7246 49.2973 16.6918C49.3171 16.5913 49.3308 15.0256 49.3308 12.8842V9.24712H52.5465V9.21107L49.3132 9.22945L49.2743 16.8236ZM82.5553 21.8272H85.7636V9.24712H82.5479V21.8238C82.5451 21.8222 82.543 21.8205 82.5419 21.8187C82.508 21.765 82.5023 9.26906 82.5366 9.235C82.5497 9.22185 83.285 9.21521 84.171 9.22026L85.7813 9.22945V21.8449L84.1756 21.8541C83.0239 21.8607 82.6317 21.8549 82.5553 21.8272ZM82.5553 21.8272H82.5479V21.8238C82.549 21.8244 82.55 21.825 82.5514 21.8256C82.5529 21.8262 82.5539 21.8267 82.5553 21.8272ZM120.19 11.4867C119.973 11.4881 119.791 11.4961 119.734 11.5081C119.419 11.5751 118.887 11.7797 118.617 11.9381C118.304 12.122 117.961 12.4218 117.741 12.7046C117.426 13.108 117.424 13.1103 117.403 13.1961C117.392 13.2398 117.369 13.2756 117.351 13.2756C117.334 13.2756 117.32 13.2916 117.32 13.3113C117.32 13.3309 117.287 13.4169 117.247 13.5023C117.207 13.5877 117.15 13.7426 117.121 13.8464L117.086 13.9695L117.054 14.0815C117.044 14.1181 117.035 14.1512 117.028 14.1767C116.973 14.37 116.972 16.0017 117.027 16.1909C117.049 16.2686 117.094 16.4254 117.125 16.5392C117.19 16.7727 117.451 17.3508 117.5 17.3688C117.517 17.3753 117.532 17.4 117.532 17.4238C117.532 17.528 117.962 18.0429 118.259 18.2935C118.578 18.5633 119.11 18.8345 119.409 18.8802C119.494 18.8932 119.586 18.9216 119.613 18.9432C119.643 18.9664 119.836 18.9802 120.16 18.9823C120.308 18.9987 120.398 18.9981 120.541 18.9801C120.822 18.974 120.95 18.9537 121.18 18.8953C121.37 18.8473 121.525 18.7956 121.525 18.7805C121.525 18.7653 121.545 18.7528 121.569 18.7527C121.642 18.7525 121.994 18.5662 122.199 18.4193C122.477 18.2204 122.742 17.9574 122.949 17.6751C123.135 17.4202 123.433 16.8735 123.433 16.7857C123.433 16.7585 123.455 16.7009 123.482 16.6579C123.509 16.6148 123.542 16.516 123.556 16.4383C123.57 16.3605 123.594 16.281 123.61 16.2616C123.661 16.1986 123.716 15.6019 123.714 15.1308C123.712 14.5564 123.613 13.9509 123.473 13.6466C123.244 13.1495 123.109 12.911 122.934 12.6919C122.716 12.422 122.307 12.0388 122.237 12.0388C122.214 12.0388 122.196 12.0269 122.196 12.0123C122.196 11.9511 121.707 11.7066 121.348 11.5878C121.144 11.5201 121.035 11.5025 120.65 11.4923C120.497 11.4801 120.342 11.4781 120.19 11.4867ZM120.19 11.4867C120.284 11.486 120.383 11.4865 120.483 11.4885C120.544 11.4897 120.599 11.4909 120.65 11.4923C120.975 11.518 121.297 11.5893 121.582 11.7033C121.798 11.7898 122.02 11.8977 122.055 11.9331C122.065 11.943 122.138 11.9937 122.219 12.0458C122.519 12.2405 122.97 12.7326 123.184 13.1C123.285 13.2748 123.431 13.5926 123.455 13.6891C123.467 13.7435 123.49 13.8039 123.505 13.8233C123.52 13.8427 123.568 14.0256 123.611 14.2297C123.717 14.7239 123.726 15.5837 123.63 16.0319C123.392 17.1487 122.855 17.97 122.002 18.5232C121.692 18.7241 121.274 18.8669 120.754 18.9488C120.669 18.9623 120.6 18.9727 120.541 18.9801C120.459 18.9819 120.364 18.9825 120.249 18.9825C120.219 18.9825 120.189 18.9824 120.16 18.9823C120.097 18.9754 120.024 18.9655 119.932 18.9526C119.486 18.89 119.113 18.7822 118.822 18.6319C118.639 18.5375 118.517 18.4656 118.486 18.4346C118.476 18.4248 118.405 18.3696 118.327 18.3119C117.963 18.042 117.529 17.4734 117.33 17.0037C117.041 16.3253 116.986 16.0323 116.987 15.1838C116.987 14.4593 117.031 14.1638 117.212 13.6643C117.479 12.9259 118.047 12.2698 118.733 11.9078C119.079 11.7255 119.352 11.6271 119.741 11.5451C119.886 11.5146 120.037 11.4953 120.19 11.4867ZM137.179 14.3357H137.221L137.205 14.1678C137.179 13.8979 137.108 13.5513 137.057 13.4357C137.03 13.3768 136.99 13.269 136.968 13.1961C136.945 13.1232 136.914 13.0635 136.898 13.0635C136.882 13.0635 136.859 13.023 136.847 12.9734C136.818 12.8603 136.229 12.262 136.005 12.1191C135.319 11.6806 134.567 11.5167 133.702 11.617C133.264 11.6678 132.878 11.8184 132.306 12.1624C132.166 12.2465 131.847 12.5509 131.704 12.7366C131.451 13.0637 131.232 13.6249 131.124 14.2208L131.103 14.3357H131.128L131.149 14.2385C131.341 13.3392 131.549 12.8932 131.975 12.4742C132.159 12.2928 132.738 11.8974 132.82 11.8974C132.831 11.8974 132.894 11.8719 132.959 11.8408C133.025 11.8097 133.218 11.7471 133.388 11.7016C134.081 11.5173 135.067 11.6267 135.678 11.9555C136.09 12.1779 136.569 12.5855 136.75 12.8692C137.014 13.2828 137.176 13.7993 137.179 14.2385L137.179 14.3357ZM150.603 14.3357H150.652L150.632 14.1855C150.549 13.5599 150.46 13.3005 150.166 12.8195C150.039 12.6114 149.555 12.1836 149.265 12.0225C148.604 11.6556 147.9 11.5232 147.104 11.6161C146.848 11.646 146.45 11.769 146.173 11.9042C145.978 11.9987 145.829 12.0817 145.802 12.1103C145.792 12.1204 145.738 12.1583 145.681 12.1944C145.398 12.375 145.075 12.7501 144.902 13.101C144.849 13.2067 144.794 13.3171 144.779 13.3462C144.734 13.4348 144.572 14.0254 144.55 14.1855L144.529 14.3357H147.584C144.732 14.3357 144.565 14.3323 144.565 14.2738C144.565 14.1745 144.671 13.7344 144.748 13.5178C144.944 12.9627 145.278 12.5057 145.707 12.2066C146.081 11.9454 146.516 11.7588 147.003 11.6504C147.071 11.6352 147.325 11.621 147.569 11.6188C147.928 11.6156 148.078 11.6312 148.372 11.7024C148.571 11.7506 148.762 11.8055 148.796 11.8244C148.83 11.8433 148.956 11.9044 149.075 11.9603C149.565 12.1901 150.077 12.6607 150.294 13.0812C150.441 13.367 150.557 13.7686 150.582 14.0795L150.603 14.3357ZM106.813 25.1657C107.399 25.1635 107.515 25.1497 107.796 25.0834C108.317 24.9609 108.701 24.8037 108.963 24.607C109.263 24.3807 109.382 24.2009 109.452 23.8664C109.493 23.6691 109.494 23.5864 109.454 23.3369C109.378 22.8655 109.146 22.5434 108.751 22.3615C108.653 22.3168 108.542 22.2653 108.503 22.2471C108.308 22.1555 107.966 22.1335 106.541 22.1206C105.714 22.1132 105.029 22.1148 105.02 22.1242C105.01 22.1337 104.895 22.1586 104.763 22.1797C104.631 22.2007 104.497 22.232 104.464 22.2491C104.431 22.2663 104.311 22.3249 104.197 22.3794C103.968 22.4895 103.68 22.7246 103.68 22.802C103.68 22.8295 103.666 22.852 103.649 22.852C103.632 22.852 103.598 22.9036 103.574 22.9668C103.551 23.03 103.513 23.1199 103.491 23.1665C103.468 23.2132 103.45 23.404 103.45 23.5906C103.45 23.8876 103.462 23.9539 103.545 24.1241C103.667 24.3706 103.723 24.4357 103.962 24.605C104.274 24.8253 104.539 24.939 104.952 25.0285C105.078 25.056 105.269 25.098 105.376 25.1219C105.483 25.1458 105.777 25.1604 106.231 25.1647C106.425 25.1705 106.624 25.1708 106.813 25.1657ZM106.813 25.1657C106.723 25.166 106.621 25.1661 106.507 25.166C106.409 25.166 106.317 25.1655 106.231 25.1647C105.937 25.1559 105.656 25.1345 105.446 25.1004C104.776 24.9914 104.23 24.7955 103.906 24.5482C103.645 24.3488 103.467 23.9626 103.468 23.5965C103.47 22.8412 103.955 22.3477 104.863 22.1782C104.941 22.1637 105.72 22.1555 106.595 22.1599C108.116 22.1677 108.195 22.1713 108.405 22.2436C108.904 22.4154 109.164 22.6223 109.335 22.9834C109.432 23.1889 109.443 23.2496 109.446 23.5557C109.448 23.8487 109.435 23.9258 109.36 24.0906C109.239 24.3552 108.865 24.704 108.622 24.7786C108.576 24.7927 108.523 24.816 108.503 24.8305C108.434 24.8819 107.897 25.0367 107.567 25.1006C107.384 25.1359 107.111 25.1576 106.813 25.1657ZM105.429 11.5746C105.468 11.558 105.563 11.53 105.641 11.5124C105.964 11.4394 106.859 11.4771 107.09 11.5733C107.373 11.6918 107.671 11.8664 107.822 12.0022C108.035 12.1949 108.294 12.5478 108.329 12.6932C108.342 12.7511 108.367 12.8157 108.384 12.8366C108.4 12.8576 108.431 12.9955 108.453 13.1429C108.494 13.418 108.453 13.9453 108.384 14.0316C108.366 14.0531 108.342 14.1212 108.328 14.1831C108.315 14.2449 108.282 14.3144 108.254 14.3376C108.226 14.3607 108.203 14.4 108.203 14.4247C108.203 14.4495 108.088 14.5867 107.947 14.7296C107.488 15.1952 107.022 15.3736 106.259 15.3765C105.512 15.3793 105.005 15.1996 104.621 14.7953C104.288 14.4456 104.155 14.1745 104.102 13.738C104.017 13.0411 104.191 12.5091 104.651 12.0567C104.886 11.8256 104.98 11.7671 105.429 11.5746ZM72.1446 12.3921C72.4665 12.1286 73.0768 11.8677 73.5546 11.7892C73.8677 11.7378 74.6203 11.7782 74.9151 11.8622C75.2271 11.9512 75.5639 12.0807 75.5805 12.1183C75.5872 12.1329 75.6115 12.1448 75.6352 12.1448C75.6988 12.1448 76.1727 12.4441 76.3197 12.5771C76.5777 12.8105 76.8816 13.1607 76.9325 13.2832C76.9547 13.3373 76.9848 13.3816 76.9992 13.3816C77.0452 13.3816 77.289 13.954 77.3759 14.265C77.5576 14.9173 77.5537 16.0848 77.3675 16.7415C77.3155 16.9245 77.2615 17.0902 77.2473 17.1097C77.2332 17.1291 77.2102 17.1925 77.1964 17.2507C77.1823 17.3088 77.1604 17.3645 77.1473 17.3745C77.1342 17.3845 77.0696 17.496 77.0031 17.6222C76.7989 18.012 76.4551 18.4083 76.0593 18.711C75.8805 18.8476 75.3158 19.1416 75.232 19.1416C75.1985 19.1416 75.1126 19.1659 75.0412 19.1957C74.8674 19.2685 74.1981 19.3146 73.7843 19.2823C73.5998 19.2679 73.3291 19.22 73.1835 19.176C72.2291 18.8876 71.4357 18.1254 71.0329 17.1097C70.8594 16.6724 70.8131 16.4496 70.7212 15.6112C70.7096 15.5061 70.7191 15.2834 70.7421 15.1164C70.8308 14.476 70.8626 14.2975 70.8919 14.2795C70.9085 14.2692 70.9219 14.226 70.9219 14.1834C70.9223 14.0465 71.2269 13.4253 71.4361 13.1346C71.6089 12.8946 71.8881 12.6021 72.1446 12.3921ZM73.3602 11.8618C72.6029 12.0391 72.0103 12.4185 71.5555 13.0167C71.4697 13.1299 71.3912 13.2305 71.3813 13.2402C71.3216 13.2997 71.1138 13.7048 71.0644 13.8588C71.0393 13.9364 71.006 14.0162 70.9905 14.036C70.9749 14.0557 70.9212 14.2494 70.8714 14.4663C70.7922 14.81 70.7806 14.9393 70.7813 15.4728C70.7824 16.1246 70.8516 16.5636 71.0269 17.0289C71.1124 17.2564 71.3297 17.6816 71.4032 17.7662C71.4301 17.7969 71.452 17.8349 71.452 17.8507C71.452 17.8791 71.7322 18.2254 71.8389 18.3291C72.298 18.7752 72.7743 19.0451 73.3779 19.2012C73.7454 19.2964 74.6214 19.2874 74.9857 19.1847C75.6027 19.0108 75.9519 18.8105 76.3847 18.3818C76.7176 18.0521 76.8848 17.8263 77.0653 17.4614C77.2802 17.0281 77.3562 16.7763 77.4639 16.139C77.5229 15.791 77.4837 14.8461 77.3943 14.4586C77.077 13.0811 76.1031 12.1358 74.703 11.8463C74.3504 11.7733 73.7058 11.7808 73.3602 11.8618ZM105.853 11.4943C105.457 11.5911 105.302 11.6393 105.181 11.703C104.672 11.9725 104.384 12.2937 104.199 12.7985C104.102 13.0633 104.079 13.6647 104.155 13.932C104.25 14.2643 104.371 14.4898 104.571 14.7091C105.021 15.2016 105.608 15.3997 106.465 15.3476C107.08 15.3103 107.568 15.0971 107.945 14.7014C108.179 14.4555 108.294 14.2482 108.381 13.9159C108.557 13.2421 108.389 12.6111 107.903 12.1269C107.472 11.6972 107.015 11.512 106.33 11.49C106.107 11.4829 105.892 11.4848 105.853 11.4943Z" fill="black"/>
<path d="M10.8323 0.410583C10.821 0.428782 10.7684 0.465922 10.7153 0.493131C10.6623 0.520341 10.5553 0.579601 10.4775 0.624833C10.3998 0.670065 10.2964 0.729149 10.2478 0.756182C10.1992 0.783215 10.1118 0.834207 10.0535 0.869509C9.69709 1.08531 9.2571 1.33158 9.22784 1.33158C9.20901 1.33158 9.1883 1.34423 9.1818 1.35971C9.17166 1.38395 8.7039 1.6617 8.55163 1.73386C8.52248 1.74768 8.44074 1.794 8.37 1.83683C8.29922 1.87963 7.86987 2.12858 7.41589 2.39007C6.96187 2.65153 6.32008 3.02307 5.98967 3.21573C5.18045 3.68752 5.16204 3.69812 5.00023 3.78614C4.86595 3.85922 4.60689 4.01075 4.31868 4.18482C4.24652 4.22839 4.13977 4.28914 4.08146 4.31977C4.02315 4.35038 3.91184 4.41374 3.8341 4.46052C3.75636 4.50731 3.66095 4.56159 3.62207 4.58116C3.5832 4.60074 3.49288 4.65279 3.42139 4.69686C3.34987 4.74092 3.08749 4.89277 2.83833 5.03429C2.58913 5.17582 2.36142 5.30639 2.33226 5.32438C2.30311 5.3424 1.8633 5.5975 1.3549 5.89126C0.346765 6.47379 0.224816 6.57224 0.0850569 6.91618L0 7.12549V19.345L0.0829367 19.5656C0.189373 19.8488 0.367649 20.0282 0.766784 20.2539C0.937817 20.3506 1.08309 20.4421 1.08956 20.4571C1.09606 20.4721 1.12062 20.4844 1.14419 20.4844C1.16776 20.4844 1.29829 20.553 1.43424 20.6368C1.57021 20.7206 1.70464 20.8005 1.73298 20.8142C1.76135 20.828 1.84814 20.8778 1.92588 20.925C2.00363 20.9722 2.09904 21.0273 2.13791 21.0474C2.17678 21.0675 2.27219 21.1243 2.34993 21.1736C2.42767 21.2229 2.55093 21.2892 2.6238 21.3209C2.6967 21.3526 2.75631 21.392 2.75631 21.4085C2.75631 21.425 2.7702 21.4385 2.78716 21.4385C2.81218 21.4385 3.08353 21.5888 3.42772 21.7934C3.45687 21.8107 3.59999 21.8927 3.74576 21.9757L3.8001 22.0066C3.84406 22.0316 3.88067 22.0524 3.91725 22.0733C4.09931 22.1772 4.28062 22.2823 5.36145 22.9091L5.59821 23.0464C6.36909 23.4934 7.05877 23.8888 7.13082 23.9251C7.20288 23.9614 7.26977 24.0012 7.27949 24.0135C7.30228 24.0423 7.45925 24.1294 7.70353 24.2489C7.86397 24.3273 7.94722 24.3441 8.18059 24.3452C8.41788 24.3463 8.49166 24.3318 8.63997 24.2546C8.83906 24.1511 8.99759 24.0157 9.10303 23.8591C9.26831 23.6137 9.27159 23.574 9.29202 21.5622L9.31138 19.654L9.41499 19.4777C9.53387 19.2754 9.72303 19.0841 9.87678 19.0107C9.93509 18.9828 10.0415 18.9254 10.1133 18.883C10.2515 18.8014 11.7958 17.909 13.0858 17.1653C13.5097 16.9209 13.9152 16.686 13.9869 16.6433C14.0586 16.6005 14.1491 16.5492 14.1879 16.5291C14.2268 16.509 14.3222 16.4533 14.4 16.4054C14.4777 16.3575 14.5811 16.2962 14.6296 16.2692C14.6782 16.2422 14.7816 16.183 14.8593 16.1377C15.0145 16.0471 15.1196 15.9868 15.5353 15.7493C15.6883 15.662 15.8453 15.571 15.8841 15.5471C15.923 15.5233 16.0025 15.4784 16.0608 15.4474C16.1191 15.4164 16.2254 15.3563 16.2971 15.3139C16.8789 14.9698 17.0643 14.8658 17.0961 14.8658C17.1162 14.8658 17.138 14.8531 17.1445 14.8377C17.151 14.8222 17.6333 14.5349 18.2164 14.1993C18.7995 13.8636 19.3004 13.5746 19.3295 13.5571C19.3587 13.5396 19.5308 13.4413 19.712 13.3386C19.8933 13.2359 20.0841 13.1263 20.1361 13.0951C20.2831 13.0067 20.495 12.8864 20.7077 12.7707C20.8146 12.7125 20.9259 12.6473 20.955 12.6257C20.9842 12.6041 21.0466 12.5648 21.0936 12.5383C21.2069 12.4744 21.4848 12.32 21.5734 12.2717C21.6123 12.2505 21.6521 12.2252 21.6618 12.2155C21.6828 12.1945 21.7907 12.1332 21.9863 12.0313C22.1769 11.9319 22.4544 11.7212 22.5364 11.6135C22.5729 11.5656 22.6375 11.444 22.68 11.3432C22.7533 11.1693 22.7572 11.1088 22.7572 10.1594L22.7572 9.15879L22.6567 8.94677C22.4664 8.54513 22.1125 8.32028 21.6618 8.31466C21.3484 8.31073 21.3324 8.31805 20.1246 9.01649C19.1761 9.565 19.1267 9.59383 18.9938 9.67634C18.9355 9.71257 18.8401 9.76691 18.7818 9.79716C18.7235 9.82738 18.644 9.87123 18.6051 9.89459C18.5662 9.91795 18.4152 10.0053 18.2694 10.0887C18.1236 10.1722 17.9805 10.2553 17.9514 10.2735C17.9222 10.2916 17.7792 10.3743 17.6336 10.4571C17.5149 10.5245 17.4437 10.565 17.3726 10.6057C17.2511 10.6753 17.1299 10.7457 16.7726 10.9532L16.7722 10.9534L16.7721 10.9534L16.683 11.0052C16.3733 11.1849 16.104 11.332 16.0845 11.332C16.065 11.332 16.0437 11.3448 16.0372 11.3603C16.0308 11.3759 15.5442 11.6661 14.9561 12.0052C14.3679 12.3444 13.859 12.6384 13.8253 12.6585C13.7915 12.6786 13.6844 12.7386 13.5872 12.7919C13.49 12.845 13.3628 12.9178 13.3045 12.9534C13.2462 12.989 13.1389 13.0523 13.066 13.0939L13.0513 13.1022L12.9976 13.1329L12.9759 13.1453C12.9149 13.1802 12.8482 13.2183 12.8009 13.2453C12.7281 13.2869 12.6207 13.3504 12.5624 13.3863C12.5041 13.4222 12.4354 13.4619 12.4098 13.4743C12.3842 13.4868 12.1934 13.5982 11.9858 13.7218C11.7782 13.8455 11.5898 13.9467 11.5671 13.9468C11.5444 13.9469 11.5206 13.9607 11.5141 13.9774C11.5016 14.0098 11.1699 14.2012 10.8486 14.3615C10.6841 14.4435 10.6107 14.4582 10.3715 14.457C10.1365 14.4558 10.0582 14.4397 9.90759 14.3619C9.68999 14.2494 9.53878 14.1041 9.40831 13.8822C9.31159 13.7177 9.31138 13.7159 9.31138 13.0282C9.31138 12.3749 9.31566 12.3309 9.39397 12.1801C9.54892 11.8818 9.699 11.7692 10.6136 11.2653C10.7331 11.1995 10.8362 11.1319 10.8427 11.1151C10.8492 11.0984 10.8704 11.0847 10.8899 11.0847C10.9241 11.0847 11.2065 10.9287 11.5023 10.7465C11.58 10.6986 11.6754 10.643 11.7143 10.6229C11.7532 10.6027 11.8486 10.5478 11.9263 10.5006C12.0041 10.4535 12.0995 10.3987 12.1384 10.3788C12.2144 10.3399 12.3674 10.2516 12.8532 9.96608C13.0237 9.86586 13.2312 9.7466 13.3143 9.70105C13.3974 9.65546 13.5195 9.58638 13.5855 9.54751C13.981 9.31474 16.8631 7.65413 17.044 7.55483C17.1641 7.48893 17.2702 7.425 17.2799 7.41274C17.2897 7.40052 17.3374 7.3703 17.386 7.3456C17.4345 7.32094 17.5538 7.25365 17.651 7.19609C17.7482 7.13856 17.8595 7.07584 17.8983 7.05679C17.9372 7.03771 18.0326 6.9829 18.1104 6.93498C18.1881 6.88706 18.2915 6.82572 18.3401 6.79865C19.2731 6.2788 19.4081 6.15353 19.5188 5.7045C19.5731 5.48442 19.5733 5.44672 19.5213 5.21805C19.4804 5.03839 19.4285 4.92411 19.3326 4.80291C19.1743 4.60283 19.0946 4.54745 18.3401 4.11383C18.3075 4.09513 18.2762 4.07715 18.2461 4.0598C17.6823 3.7356 17.5291 3.64754 17.3666 3.6236C17.3059 3.61467 17.244 3.61466 17.1589 3.61465H17.1588C17.1467 3.61465 17.1341 3.61465 17.1209 3.61462C16.7901 3.61388 16.6771 3.65352 16.2728 3.91187C16.2145 3.94912 16.1191 4.00393 16.0608 4.03361C16.0025 4.0633 15.8991 4.1221 15.8311 4.16429C15.7631 4.20648 15.6432 4.27585 15.5647 4.31847C15.3291 4.44646 15.2507 4.49225 15.195 4.53448C15.1659 4.5566 15.0582 4.62021 14.9557 4.67583C14.8532 4.73145 14.7147 4.80877 14.6481 4.84764C14.5814 4.88651 13.8304 5.32091 12.9792 5.81299C12.128 6.30509 11.4078 6.72197 11.3786 6.73943C11.3495 6.75692 11.1774 6.85519 10.9962 6.95788C10.8149 7.06057 10.6082 7.17884 10.5368 7.22076C10.3667 7.32051 10.235 7.39681 10.1153 7.4649C10.0619 7.49529 9.95452 7.5578 9.87678 7.60381C9.79904 7.64982 9.68773 7.71251 9.62942 7.74311C9.57111 7.77375 9.4598 7.83767 9.38206 7.8852C9.30431 7.9327 9.20095 7.99189 9.15236 8.01673C9.10378 8.04157 9.05607 8.07094 9.04635 8.082C9.02692 8.10408 8.81291 8.22865 8.52428 8.38586C8.4218 8.44169 8.28395 8.51919 8.21797 8.55806C8.152 8.59693 7.67498 8.87277 7.158 9.17102C6.64098 9.4693 6.1565 9.77144 6.08138 9.84243C6.00621 9.91346 5.90716 10.0431 5.86119 10.1306L5.77765 10.2896L5.74231 18.281L5.65397 18.4105C5.56036 18.5476 5.36898 18.6469 5.19819 18.6469C5.0955 18.6469 4.83803 18.5547 4.80587 18.5064C4.79616 18.4918 4.68873 18.426 4.56714 18.3602C4.44558 18.2943 4.30246 18.2166 4.2491 18.1873C3.8677 17.9783 3.62713 17.6873 3.56709 17.3625C3.54479 17.2419 3.53553 15.6915 3.54168 13.1128L3.5514 9.05278L3.64554 8.8761C3.79286 8.59951 3.9588 8.47014 4.7352 8.02645C5.13363 7.79873 5.47552 7.60014 5.49495 7.58508C5.51439 7.57003 5.6257 7.50625 5.74231 7.44334C5.85893 7.38048 5.97823 7.3085 6.00741 7.28341C6.0366 7.25835 6.10021 7.22012 6.14876 7.19849C6.19732 7.17687 6.31655 7.1117 6.41372 7.05372C6.5109 6.99573 6.61825 6.9389 6.65225 6.92746C6.68624 6.91601 6.71409 6.89431 6.71409 6.87926C6.71409 6.8642 6.77374 6.82597 6.8466 6.79434C6.91951 6.76268 7.03078 6.70532 7.09397 6.66681C7.15715 6.62832 7.25588 6.56899 7.31341 6.535C7.45441 6.4516 9.5221 5.25787 10.6298 4.62032C11.5723 4.07785 11.6853 4.01202 11.8557 3.90611C11.914 3.86986 12.0094 3.816 12.0677 3.78639C12.126 3.75678 12.2373 3.69324 12.3151 3.64518C12.3928 3.59709 12.5041 3.53338 12.5624 3.50355C12.6207 3.47373 12.726 3.41411 12.7962 3.37107C12.8665 3.32803 13.029 3.23209 13.1574 3.15785C13.7076 2.8396 13.9347 2.32834 13.7579 1.80609C13.6277 1.42134 13.537 1.34289 12.5929 0.798728L11.8621 0.377472H11.3574C11.0798 0.377472 10.8435 0.392385 10.8323 0.410583Z" fill="#F5957C" fill-opacity="0.988"/>
<path d="M21.2911 15.8266C21.196 15.8627 19.786 16.6636 19.1878 17.0215C19.1586 17.0389 18.8803 17.1988 18.5694 17.3767C18.2584 17.5546 17.9563 17.7276 17.8979 17.7611C17.8396 17.7945 17.6827 17.8842 17.5493 17.9605C17.4158 18.0368 17.2329 18.1428 17.1429 18.1962C17.0529 18.2495 16.9553 18.3036 16.9262 18.3164C16.897 18.3291 16.8493 18.3594 16.8202 18.3836C16.791 18.4078 16.6717 18.4796 16.5551 18.543C16.33 18.6655 16.2446 18.7137 16.0364 18.8357C15.9649 18.8776 15.2175 19.308 14.3755 19.7921C12.5122 20.8636 12.4466 20.9055 12.3066 21.1145C12.111 21.4063 12.085 21.5688 12.085 22.4976C12.085 23.4177 12.1175 23.6396 12.2898 23.8944C12.3963 24.052 12.4898 24.136 12.7013 24.2638C12.8275 24.34 12.8873 24.3506 13.1981 24.3521C13.4997 24.3536 13.5696 24.3427 13.6751 24.2778C13.7432 24.236 13.8895 24.1531 14.0004 24.0936C14.2617 23.9533 14.3522 23.9012 14.3978 23.8647C14.4182 23.8483 14.526 23.7847 14.6372 23.7233C14.7485 23.662 15.5964 23.1744 16.5213 22.64C17.4463 22.1055 18.3014 21.6143 18.4215 21.5484C18.5417 21.4825 18.648 21.4189 18.6577 21.407C18.6674 21.3952 18.731 21.3575 18.799 21.3233C18.9147 21.2652 18.9735 21.2308 19.2673 21.0496C19.3305 21.0107 19.4298 20.9539 19.4881 20.9235C19.5464 20.8931 19.6577 20.83 19.7355 20.7832C19.8132 20.7364 19.9086 20.6818 19.9475 20.662C19.9864 20.6421 20.0924 20.5821 20.1831 20.5286C20.4925 20.3463 21.1488 19.9683 21.202 19.9419C21.2311 19.9275 21.3135 19.8806 21.3851 19.8378C21.4567 19.795 21.6943 19.6566 21.9131 19.5303C22.382 19.2596 22.5503 19.105 22.6693 18.836C22.7558 18.6405 22.7568 18.6258 22.7568 17.6331C22.7568 16.6837 22.7526 16.6179 22.6806 16.4448C22.5867 16.2193 22.3818 15.9987 22.1626 15.8872C22.0328 15.8212 21.9322 15.8013 21.6967 15.7949C21.5315 15.7904 21.349 15.8047 21.2911 15.8266Z" fill="#F5957C" fill-opacity="0.988"/>
</g>
<defs>
<clipPath id="clip0_15119_26500">
<rect width="154" height="27.2451" fill="white" transform="translate(0 0.377472)"/>
</clipPath>
</defs>
</svg>
